# 3ds Max Wavefront OBJ Exporter v0.97b - (c)2007 guruware
# File Created: 09.07.2015 18:14:11

mtllib Schalter.mtl

#
# object Box001
#

#
# object Box002
#

v  0.5562 3.0946 -6.3852
v  0.6029 3.1399 -6.0879
v  -0.7783 3.9977 -0.4576
v  -0.8941 3.9522 -0.7564
v  0.5172 21.2037 -7.6432
v  0.2448 21.1590 -7.9368
v  -1.1207 22.0182 -2.2975
v  -0.7757 22.0623 -2.0077
v  0.0537 3.9963 -0.4671
v  0.8685 3.0964 -6.3735
v  0.9275 21.1590 -7.9368
v  0.9275 22.0623 -2.0077
v  0.0942 3.0984 -6.3601
v  -1.1952 3.9936 -0.4848
v  -1.4663 22.0623 -2.0077
v  -1.4663 21.1590 -7.9368
v  -8.5676 -0.0677 -10.3398
v  -5.6616 3.4726 -7.5222
v  6.2840 3.4726 -7.5222
v  8.4652 -0.0677 -10.3398
v  -6.0106 7.0129 -7.3114
v  -6.0106 5.6598 0.0000
v  -1.9266 5.6598 0.0000
v  -1.9266 7.0129 -7.3114
v  -6.0106 7.0129 7.3114
v  -1.9266 7.0129 7.3114
v  -5.6616 3.4726 7.5795
v  6.2841 3.4726 7.5795
v  6.2413 7.0129 7.3114
v  2.1574 7.0129 7.3114
v  -1.9266 2.8547 -6.3691
v  -1.9266 0.7897 0.0000
v  2.1574 0.7897 0.0000
v  2.1574 2.8547 -6.3691
v  -1.9266 2.8547 6.7176
v  2.1574 2.8547 6.7176
v  2.1574 7.0129 -7.3114
v  2.1574 5.6598 0.0000
v  6.2413 5.6598 0.0000
v  6.2413 7.0129 -7.3114
v  -8.5676 -0.0677 10.3398
v  8.4652 -0.0677 10.3398
# 42 vertices

vn -0.0000 -0.9886 0.1506
vn 0.0000 -0.9886 0.1506
vn 0.0000 0.9886 -0.1506
vn -0.0000 0.9886 -0.1506
vn -0.2873 0.0524 0.9564
vn -0.1600 0.2499 0.9550
vn 0.5393 0.0757 0.8387
vn 0.5377 0.0705 0.8402
vn 0.9795 -0.0054 0.2013
vn 0.9689 0.0155 0.2469
vn 0.9958 -0.0679 0.0611
vn 0.9960 -0.0887 0.0135
vn 0.3691 -0.1221 -0.9213
vn 0.1821 0.1587 -0.9704
vn -0.5600 -0.0848 -0.8241
vn -0.5078 -0.0907 -0.8567
vn -0.9531 -0.0792 -0.2921
vn -0.9270 -0.0572 -0.3706
vn -0.9886 -0.1374 -0.0624
vn -0.9873 -0.1570 0.0239
vn -0.9927 -0.0003 -0.1203
vn -0.9879 0.0992 0.1190
vn -0.0010 0.0854 0.9963
vn -0.0353 0.0830 0.9959
vn 0.9729 0.0691 0.2208
vn 0.9801 0.1462 -0.1343
vn 0.0004 -0.0856 -0.9963
vn 0.0203 -0.0863 -0.9961
vn -0.0000 0.6227 -0.7824
vn -0.0000 0.4060 -0.9139
vn 0.0000 0.4148 -0.9099
vn 0.0000 0.6227 -0.7824
vn -0.0000 0.8282 -0.5604
vn -0.0000 1.0000 0.0000
vn 0.0000 1.0000 0.0000
vn -0.0000 0.5192 -0.8547
vn -0.0000 0.8320 0.5547
vn -0.0000 0.5306 0.8476
vn 0.0000 0.4069 0.9135
vn 0.0000 0.4153 0.9097
vn -0.0000 0.7875 0.6163
vn 0.0000 0.9513 0.3084
vn 0.0000 1.0000 0.0076
vn -0.0000 0.9559 -0.2938
vn 0.0000 0.9559 -0.2938
vn 0.0000 0.7825 -0.6227
vn -0.8827 0.4699 0.0113
vn -0.8803 0.4743 0.0000
vn -0.5469 0.8372 0.0000
vn 0.8745 0.4851 0.0013
vn 0.8742 0.4855 -0.0000
vn 0.6566 0.7543 -0.0000
vn 1.0000 0.0000 -0.0000
vn 1.0000 0.0000 0.0000
vn -1.0000 -0.0000 -0.0000
vn -1.0000 -0.0000 0.0000
vn 0.0000 0.2210 0.9753
vn -0.0000 0.6149 0.7886
vn 0.0000 0.6149 0.7886
vn 0.0000 0.1414 -0.9900
vn 0.9997 0.0223 0.0041
vn 0.9959 0.0895 -0.0155
vn 0.9997 0.0252 -0.0007
vn -0.9834 -0.1783 0.0330
vn -0.8071 -0.5821 -0.0987
vn -0.9793 -0.2025 -0.0053
# 66 vertex normals

vt 0.5766 0.0262 0.0000
vt 0.5713 0.0270 0.0000
vt 0.4680 0.0145 0.0000
vt 0.4735 0.0129 0.0000
vt 0.5437 0.2722 0.0000
vt 0.5483 0.2766 0.0000
vt 0.4448 0.2671 0.0000
vt 0.4409 0.2619 0.0000
vt 0.0822 0.3665 0.0000
vt 0.0564 0.2641 0.0000
vt 0.2904 0.2045 0.0000
vt 0.3164 0.3068 0.0000
vt 0.0289 0.1625 0.0000
vt 0.2617 0.0988 0.0000
vt 0.2884 0.1969 0.0000
vt 0.0554 0.2607 0.0000
vt 0.3588 0.0020 0.0000
vt 0.4652 0.0156 0.0000
vt 0.4375 0.2586 0.0000
vt 0.3314 0.2480 0.0000
vt 0.5663 0.0236 0.0000
vt 0.6733 0.0386 0.0000
vt 0.5660 0.0273 0.0000
vt 0.4612 0.0139 0.0000
vt 0.5379 0.2766 0.0000
vt 0.5385 0.2687 0.0000
vt 0.6455 0.2840 0.0000
vt 0.4338 0.2598 0.0000
vt 0.0020 0.0660 0.0000
vt 0.2354 0.0020 0.0000
vt 0.0154 0.4670 0.0000
vt 0.1145 0.5257 0.0000
vt 0.1145 0.7670 0.0000
vt 0.0154 0.8110 0.0000
vt 0.6535 0.7964 0.0000
vt 0.8084 0.7964 0.0000
vt 0.8084 0.8608 0.0000
vt 0.6535 0.8608 0.0000
vt 0.9632 0.7964 0.0000
vt 0.9632 0.8608 0.0000
vt 0.4246 0.6396 -0.0000
vt 0.4924 0.6463 -0.0000
vt 0.4950 0.9005 -0.0000
vt 0.4255 0.7264 -0.0000
vt 0.4273 0.9002 -0.0000
vt 0.4264 0.8133 0.0000
vt 0.6191 0.6396 -0.0000
vt 0.7728 0.6396 -0.0000
vt 0.7728 0.7118 0.0000
vt 0.6191 0.7118 -0.0000
vt 0.9345 0.6396 -0.0000
vt 0.9345 0.7118 0.0000
vt 0.0154 0.8940 -0.0000
vt 0.1702 0.8940 0.0000
vt 0.1702 0.9584 -0.0000
vt 0.0154 0.9584 -0.0000
vt 0.3251 0.8940 0.0000
vt 0.3251 0.9584 -0.0000
vt 0.7037 0.4551 0.0000
vt 0.4003 0.4502 0.0000
vt 0.3448 0.3845 0.0000
vt 0.7602 0.3913 0.0000
vt 0.4003 0.5640 0.0000
vt 0.6942 0.5678 0.0000
vt 0.7472 0.6246 0.0000
vt 0.3448 0.6193 0.0000
vt 0.8168 0.9288 0.0000
vt 0.6804 0.9165 0.0000
vt 0.9436 0.9174 0.0000
vt 0.8000 0.9288 0.0000
vt 0.1618 0.8260 0.0000
vt 0.3055 0.8375 0.0000
vt 0.0422 0.8384 -0.0000
vt 0.1786 0.8260 0.0000
vt 0.1786 0.6836 0.0000
vt 0.1786 0.6012 0.0000
vt 0.2577 0.6012 0.0000
vt 0.2577 0.6836 0.0000
vt 0.1786 0.7661 0.0000
vt 0.1786 0.5187 0.0000
vt 0.5100 0.6959 0.0000
vt 0.6041 0.6396 0.0000
vt 0.6041 0.9700 0.0000
vt 0.5100 0.9276 0.0000
vt 0.3456 0.8142 0.0000
vt 0.3448 0.7273 -0.0000
vt 0.4050 0.5179 0.0000
vt 0.5471 0.5374 0.0000
vt 0.6896 0.5216 0.0000
vt 0.6975 0.5029 0.0000
vt 0.5509 0.4825 0.0000
vt 0.4038 0.4981 0.0000
# 92 texture coords

g Box002
usemtl Material__3
s 2
f 1/1/1 2/2/1 3/3/2 4/4/1 
s 4
f 5/5/3 6/6/3 7/7/4 8/8/3 
s 8
f 2/2/5 5/5/6 8/8/7 3/3/8 
s 16
f 9/9/9 10/10/10 11/11/11 12/12/12 
s 32
f 4/13/13 7/14/14 6/15/15 1/16/16 
s 64
f 13/17/17 14/18/18 15/19/19 16/20/20 
s 2
f 10/21/1 9/22/1 2/2/1 1/23/1 
f 14/18/1 13/17/1 4/24/1 3/3/2 
s 4
f 11/25/4 6/26/3 5/5/3 12/27/4 
f 15/19/4 8/8/3 7/28/4 16/20/4 
s 8
f 9/22/21 12/27/22 5/5/6 2/2/5 
f 15/19/23 14/18/24 3/3/8 8/8/7 
s 32
f 13/29/25 16/30/26 7/14/14 4/13/13 
f 11/11/27 10/10/28 1/16/16 6/15/15 
s 8
f 17/31/29 18/32/30 19/33/31 20/34/32 
f 21/35/33 22/36/34 23/37/35 24/38/36 
f 22/36/34 25/39/37 26/40/38 23/37/35 
f 25/41/37 27/42/39 28/43/40 26/44/38 
f 28/43/40 29/45/41 30/46/38 26/44/38 
f 31/47/42 32/48/43 33/49/43 34/50/42 
f 32/48/43 35/51/44 36/52/45 33/49/43 
f 37/53/36 38/54/34 39/55/34 40/56/46 
f 38/54/34 30/57/38 29/58/41 39/55/34 
s 1
f 27/59/47 18/60/48 17/61/49 41/62/49 
f 19/63/50 28/64/51 42/65/52 20/66/52 
s off
f 24/38/53 23/37/53 32/67/53 31/68/53 
f 23/37/54 26/40/54 35/69/54 32/70/54 
f 30/57/55 38/54/55 33/71/55 36/72/55 
f 38/54/56 37/53/56 34/73/56 33/74/56 
f 37/75/57 24/76/57 31/77/57 34/78/57 
s 8
f 37/75/36 40/79/46 19/33/31 24/76/36 
f 21/80/33 24/76/36 19/33/31 18/32/30 
f 27/81/39 41/82/58 42/83/59 28/84/40 
s off
f 36/85/60 35/86/60 26/44/60 30/46/60 
s 1
f 19/63/50 40/87/61 39/88/62 29/89/63 
f 19/63/50 29/89/63 28/64/51 
f 27/59/47 25/90/64 22/91/65 21/92/66 
f 27/59/47 21/92/66 18/60/48 
# 36 polygons - 2 triangles

