# 3ds Max Wavefront OBJ Exporter v0.97b - (c)2007 guruware
# File Created: 10.07.2015 02:54:25

mtllib cable_small.mtl

#
# object Plane001
#

v  -17.1600 1.8645 -2.8385
v  -29.1838 1.0546 -2.3182
v  -29.1838 1.0546 -1.3573
v  -17.1607 1.8645 -1.8776
v  -5.1758 0.8158 -2.4352
v  -5.1829 0.8188 -1.4743
v  6.7809 1.7991 -1.8393
v  6.7812 1.8026 -0.8781
v  18.0598 1.7832 -2.3273
v  18.0684 1.7835 -1.3664
v  29.2187 0.6480 -2.9732
v  29.2187 0.6480 -2.0123
v  -29.1498 0.2945 -1.3573
v  -29.1498 0.2945 -2.3182
v  -17.1654 1.1033 -2.8385
v  -17.1654 1.1033 -1.8776
v  -5.1808 0.0546 -2.4350
v  -5.1808 0.0576 -1.4741
v  6.8013 1.0382 -1.8391
v  6.8013 1.0418 -0.8779
v  18.0313 1.0228 -2.3273
v  18.0449 1.0228 -1.3664
v  29.1675 -0.1106 -2.9732
v  29.1675 -0.1106 -2.0123
# 24 vertices

vn 0.0103 0.9999 0.0000
vn -0.0672 0.9977 -0.0000
vn 0.0097 1.0000 -0.0001
vn 0.0045 1.0000 -0.0030
vn 0.0008 1.0000 -0.0031
vn -0.0404 0.9992 -0.0037
vn -0.0402 0.9992 -0.0036
vn 0.0528 0.9986 -0.0008
vn 0.0502 0.9987 -0.0007
vn 0.1013 0.9949 -0.0001
vn 0.1013 0.9949 0.0000
vn 0.0673 -0.9977 -0.0000
vn -0.0102 -0.9999 -0.0000
vn -0.0097 -1.0000 0.0001
vn -0.0049 -1.0000 0.0030
vn -0.0005 -1.0000 0.0031
vn 0.0403 -0.9992 0.0037
vn 0.0402 -0.9992 0.0036
vn -0.0526 -0.9986 0.0008
vn -0.0503 -0.9987 0.0007
vn -0.1014 -0.9948 0.0001
vn -0.1014 -0.9948 0.0000
vn 0.0431 0.0018 0.9991
vn 0.0048 -0.0000 1.0000
vn 0.0050 0.0000 1.0000
vn 0.0431 0.0019 0.9991
vn -0.0048 -0.0000 -1.0000
vn -0.0432 -0.0019 -0.9991
vn -0.0432 -0.0018 -0.9991
vn -0.0049 0.0000 -1.0000
vn -0.9990 -0.0447 -0.0000
vn -0.0417 0.0001 0.9991
vn 0.0416 -0.0005 -0.9991
vn 0.0417 -0.0004 -0.9991
vn -0.0036 0.0001 1.0000
vn -0.0028 0.0002 1.0000
vn 0.0035 -0.0002 -1.0000
vn 0.0027 -0.0001 -1.0000
vn 0.0506 -0.0016 0.9987
vn 0.0504 -0.0015 0.9987
vn -0.0505 0.0018 -0.9987
vn -0.0504 0.0019 -0.9987
vn 0.0576 -0.0039 0.9983
vn 0.0576 -0.0038 0.9983
vn 0.9977 -0.0674 -0.0000
vn 0.9977 -0.0674 0.0000
vn -0.0574 0.0038 -0.9983
vn -0.0574 0.0039 -0.9983
# 48 vertex normals

vt 0.2782 0.1941 0.0000
vt 0.0732 0.0269 0.0000
vt 0.0246 0.0722 0.0000
vt 0.2297 0.2393 0.0000
vt 0.4365 0.4045 0.0000
vt 0.3878 0.4497 0.0000
vt 0.5846 0.6237 0.0000
vt 0.5361 0.6690 0.0000
vt 0.7767 0.7802 0.0000
vt 0.7283 0.8256 0.0000
vt 0.9757 0.9280 0.0000
vt 0.9271 0.9733 0.0000
vt 0.0231 0.0725 0.0000
vt 0.0717 0.0272 0.0000
vt 0.2764 0.1938 0.0000
vt 0.2279 0.2391 0.0000
vt 0.4347 0.4043 0.0000
vt 0.3862 0.4496 0.0000
vt 0.5831 0.6237 0.0000
vt 0.5345 0.6690 0.0000
vt 0.7747 0.7797 0.0000
vt 0.7263 0.8252 0.0000
vt 0.9734 0.9274 0.0000
vt 0.9248 0.9727 0.0000
# 24 texture coords

g Plane001
usemtl Material__3
s 1
f 1/1/1 2/2/2 3/3/2 4/4/3 
f 5/5/4 1/1/1 4/4/3 6/6/5 
f 7/7/6 5/5/4 6/6/5 8/8/7 
f 9/9/8 7/7/6 8/8/7 10/10/9 
f 11/11/10 9/9/8 10/10/9 12/12/11 
f 13/13/12 14/14/12 15/15/13 16/16/14 
f 16/16/14 15/15/13 17/17/15 18/18/16 
f 18/18/16 17/17/15 19/19/17 20/20/18 
f 20/20/18 19/19/17 21/21/19 22/22/20 
f 22/22/20 21/21/19 23/23/21 24/24/22 
s 2
f 13/3/23 16/4/24 4/4/25 3/3/26 
f 15/1/27 14/2/28 2/2/29 1/1/30 
s 4
f 14/2/31 13/3/31 3/3/31 2/2/31 
s 2
f 16/4/24 18/6/32 6/6/32 4/4/25 
f 17/5/33 15/1/27 1/1/30 5/5/34 
f 18/6/32 20/8/35 8/8/36 6/6/32 
f 19/7/37 17/5/33 5/5/34 7/7/38 
f 20/8/35 22/10/39 10/10/40 8/8/36 
f 21/9/41 19/7/37 7/7/38 9/9/42 
f 22/10/39 24/12/43 12/12/44 10/10/40 
s 4
f 24/12/45 23/11/46 11/11/45 12/12/45 
s 2
f 23/11/47 21/9/41 9/9/42 11/11/48 
# 22 polygons

