# 3ds Max Wavefront OBJ Exporter v0.97b - (c)2007 guruware
# File Created: 30.06.2015 23:12:48

#
# object Bridge_element
#

v  -32.2838 0.5042 10.3426
v  -32.2838 0.5042 -10.3426
v  32.2838 0.5042 -10.3426
v  32.2838 0.5042 10.3426
v  -32.2838 0.6927 10.3426
v  32.2838 0.6927 10.3426
v  32.2838 0.6927 -10.3426
v  -32.2838 0.6927 -10.3426
v  -29.3008 0.5349 -10.1872
v  -30.6518 -0.4792 -10.1872
v  -30.6518 -0.4792 9.9763
v  -29.3008 0.5349 9.9763
v  -26.0704 -0.4586 -10.1872
v  -27.4427 0.5351 -10.1872
v  -27.4427 0.5351 9.9763
v  -26.0704 -0.4586 9.9763
v  -22.9515 0.5351 -10.1872
v  -24.3238 -0.4586 -10.1872
v  -24.3238 -0.4586 9.9763
v  -22.9515 0.5351 9.9763
v  -19.7217 -0.4586 -10.1872
v  -21.0940 0.5351 -10.1872
v  -21.0940 0.5351 9.9763
v  -19.7217 -0.4586 9.9763
v  -16.6028 0.5351 -10.1872
v  -17.9751 -0.4586 -10.1872
v  -17.9751 -0.4586 9.9763
v  -16.6028 0.5351 9.9763
v  -13.3729 -0.4586 -10.1872
v  -14.7452 0.5351 -10.1872
v  -14.7452 0.5351 9.9763
v  -13.3729 -0.4586 9.9763
v  -10.2540 0.5351 -10.1872
v  -11.6263 -0.4586 -10.1872
v  -11.6263 -0.4586 9.9763
v  -10.2540 0.5351 9.9763
v  -7.0241 -0.4586 -10.1872
v  -8.3964 0.5351 -10.1872
v  -8.3964 0.5351 9.9763
v  -7.0241 -0.4586 9.9763
v  -3.9052 0.5351 -10.1872
v  -5.2775 -0.4586 -10.1872
v  -5.2775 -0.4586 9.9763
v  -3.9052 0.5351 9.9763
v  -0.6753 -0.4586 -10.1872
v  -2.0477 0.5351 -10.1872
v  -2.0477 0.5351 9.9763
v  -0.6753 -0.4586 9.9763
v  2.4436 0.5351 -10.1872
v  1.0712 -0.4586 -10.1872
v  1.0712 -0.4586 9.9763
v  2.4436 0.5351 9.9763
v  5.6734 -0.4586 -10.1872
v  4.3011 0.5351 -10.1872
v  4.3011 0.5351 9.9763
v  5.6734 -0.4586 9.9763
v  8.7923 0.5351 -10.1872
v  7.4200 -0.4586 -10.1872
v  7.4200 -0.4586 9.9763
v  8.7923 0.5351 9.9763
v  12.0222 -0.4586 -10.1872
v  10.6499 0.5351 -10.1872
v  10.6499 0.5351 9.9763
v  12.0222 -0.4586 9.9763
v  15.1411 0.5351 -10.1872
v  13.7688 -0.4586 -10.1872
v  13.7688 -0.4586 9.9763
v  15.1411 0.5351 9.9763
v  18.3710 -0.4586 -10.1872
v  16.9987 0.5351 -10.1872
v  16.9987 0.5351 9.9763
v  18.3710 -0.4586 9.9763
v  21.4899 0.5351 -10.1872
v  20.1176 -0.4586 -10.1872
v  20.1176 -0.4586 9.9763
v  21.4899 0.5351 9.9763
v  24.7197 -0.4586 -10.1872
v  23.3474 0.5351 -10.1872
v  23.3474 0.5351 9.9763
v  24.7197 -0.4586 9.9763
v  27.8386 0.5351 -10.1872
v  26.4663 -0.4586 -10.1872
v  26.4663 -0.4586 9.9763
v  27.8386 0.5351 9.9763
v  31.0517 -0.4549 -10.1872
v  29.6962 0.5351 -10.1872
v  29.6962 0.5351 9.9763
v  31.0517 -0.4549 9.9763
v  -31.5041 -0.0162 9.9763
v  -31.5041 -0.0162 -10.1872
v  31.9081 -0.0966 -10.1872
v  31.9081 -0.0966 9.9763
v  -30.6449 -0.5689 9.9763
v  -30.6449 -0.5689 -10.1872
v  -29.2726 0.4495 -10.1872
v  -29.2726 0.4495 9.9763
v  -27.4705 0.4495 9.9763
v  -27.4705 0.4495 -10.1872
v  -26.0982 -0.5442 -10.1872
v  -26.0982 -0.5442 9.9763
v  -24.2961 -0.5442 9.9763
v  -24.2961 -0.5442 -10.1872
v  -22.9238 0.4495 -10.1872
v  -22.9238 0.4495 9.9763
v  -21.1217 0.4495 9.9763
v  -21.1217 0.4495 -10.1872
v  -19.7494 -0.5442 -10.1872
v  -19.7494 -0.5442 9.9763
v  -17.9473 -0.5442 9.9763
v  -17.9473 -0.5442 -10.1872
v  -16.5750 0.4495 -10.1872
v  -16.5750 0.4495 9.9763
v  -14.7729 0.4495 9.9763
v  -14.7729 0.4495 -10.1872
v  -13.4006 -0.5442 -10.1872
v  -13.4006 -0.5442 9.9763
v  -11.5986 -0.5442 9.9763
v  -11.5986 -0.5442 -10.1872
v  -10.2262 0.4495 -10.1872
v  -10.2262 0.4495 9.9763
v  -8.4242 0.4495 9.9763
v  -8.4242 0.4495 -10.1872
v  -7.0519 -0.5442 -10.1872
v  -7.0519 -0.5442 9.9763
v  -5.2498 -0.5442 9.9763
v  -5.2498 -0.5442 -10.1872
v  -3.8775 0.4495 -10.1872
v  -3.8775 0.4495 9.9763
v  -2.0754 0.4495 9.9763
v  -2.0754 0.4495 -10.1872
v  -0.7031 -0.5442 -10.1872
v  -0.7031 -0.5442 9.9763
v  1.0990 -0.5442 9.9763
v  1.0990 -0.5442 -10.1872
v  2.4713 0.4495 -10.1872
v  2.4713 0.4495 9.9763
v  4.2734 0.4495 9.9763
v  4.2734 0.4495 -10.1872
v  5.6457 -0.5442 -10.1872
v  5.6457 -0.5442 9.9763
v  7.4478 -0.5442 9.9763
v  7.4478 -0.5442 -10.1872
v  8.8201 0.4495 -10.1872
v  8.8201 0.4495 9.9763
v  10.6222 0.4495 9.9763
v  10.6222 0.4495 -10.1872
v  11.9945 -0.5442 -10.1872
v  11.9945 -0.5442 9.9763
v  13.7965 -0.5442 9.9763
v  13.7965 -0.5442 -10.1872
v  15.1688 0.4495 -10.1872
v  15.1688 0.4495 9.9763
v  16.9709 0.4495 9.9763
v  16.9709 0.4495 -10.1872
v  18.3432 -0.5442 -10.1872
v  18.3432 -0.5442 9.9763
v  20.1453 -0.5442 9.9763
v  20.1453 -0.5442 -10.1872
v  21.5176 0.4495 -10.1872
v  21.5176 0.4495 9.9763
v  23.3197 0.4495 9.9763
v  23.3197 0.4495 -10.1872
v  24.6920 -0.5442 -10.1872
v  24.6920 -0.5442 9.9763
v  26.4941 -0.5442 9.9763
v  26.4941 -0.5442 -10.1872
v  27.8664 0.4495 -10.1872
v  27.8664 0.4495 9.9763
v  29.6685 0.4495 9.9763
v  29.6685 0.4495 -10.1872
v  31.0408 -0.5442 -10.1872
v  31.0408 -0.5442 9.9763
v  -31.5459 -0.0959 9.9763
v  -31.5459 -0.0959 -10.1872
v  31.9418 -0.1800 -10.1872
v  31.9418 -0.1800 9.9763
v  -32.2838 -0.6927 10.3426
v  -32.2838 -0.6927 -10.3426
v  32.2838 -0.6927 -10.3426
v  32.2838 -0.6927 10.3426
v  -32.2838 -0.5042 10.3426
v  32.2838 -0.5042 10.3426
v  32.2838 -0.5042 -10.3426
v  -32.2838 -0.5042 -10.3426
# 184 vertices

vn 0.0000 -1.0000 -0.0000
vn 0.0000 1.0000 -0.0000
vn 0.0000 0.0000 1.0000
vn 1.0000 0.0000 -0.0000
vn 0.0000 0.0000 -1.0000
vn -1.0000 0.0000 -0.0000
vn -0.3164 0.9486 -0.0000
vn -0.0731 0.9973 -0.0000
vn 0.3083 0.9513 -0.0000
vn 0.3082 0.9513 -0.0000
vn -0.3083 0.9513 -0.0000
vn 0.1170 0.9931 -0.0000
vn 0.3102 0.9507 -0.0000
vn 0.4773 0.8787 -0.0000
vn -0.3860 0.9225 -0.0000
vn 0.0774 -0.9970 -0.0000
vn 0.3138 -0.9495 -0.0000
vn -0.3083 -0.9513 -0.0000
vn 0.3083 -0.9513 -0.0000
vn -0.1210 -0.9927 -0.0000
vn -0.4648 -0.8854 -0.0000
vn 0.3748 -0.9271 -0.0000
vn -0.8854 0.4648 -0.0000
vn 0.9271 0.3748 -0.0000
# 24 vertex normals

vt 0.7127 0.9538 0.0000
vt 0.4917 0.9538 0.0000
vt 0.4917 0.2640 0.0000
vt 0.7127 0.2640 0.0000
vt 0.7309 0.9538 0.0000
vt 0.7309 0.2640 0.0000
vt 0.9519 0.2640 0.0000
vt 0.9519 0.9538 0.0000
vt 0.2270 0.4481 0.0000
vt 0.2223 0.9002 0.0000
vt 0.2176 0.8954 0.0000
vt 0.2223 0.4528 0.0000
vt 0.0743 0.8986 0.0000
vt 0.0790 0.8940 0.0000
vt 0.0790 0.4466 0.0000
vt 0.0837 0.4513 0.0000
vt 0.1014 0.1406 0.0000
vt 0.0649 0.1406 0.0000
vt 0.0649 0.0422 0.0000
vt 0.1014 0.0423 0.0000
vt 0.1450 0.1406 0.0000
vt 0.1097 0.1406 0.0000
vt 0.1097 0.0423 0.0000
vt 0.1450 0.0423 0.0000
vt 0.1898 0.1406 0.0000
vt 0.1544 0.1406 0.0000
vt 0.1544 0.0423 0.0000
vt 0.1898 0.0423 0.0000
vt 0.2334 0.1406 0.0000
vt 0.1980 0.1406 0.0000
vt 0.1980 0.0423 0.0000
vt 0.2334 0.0423 0.0000
vt 0.2782 0.1406 0.0000
vt 0.2428 0.1406 0.0000
vt 0.2428 0.0423 0.0000
vt 0.2782 0.0423 0.0000
vt 0.3217 0.1406 0.0000
vt 0.2863 0.1406 0.0000
vt 0.2863 0.0423 0.0000
vt 0.3217 0.0423 0.0000
vt 0.3665 0.1406 0.0000
vt 0.3311 0.1406 0.0000
vt 0.3311 0.0423 0.0000
vt 0.3665 0.0423 0.0000
vt 0.4100 0.1406 0.0000
vt 0.3747 0.1406 0.0000
vt 0.3747 0.0423 0.0000
vt 0.4100 0.0424 0.0000
vt 0.4548 0.1406 0.0000
vt 0.4194 0.1406 0.0000
vt 0.4194 0.0424 0.0000
vt 0.4548 0.0424 0.0000
vt 0.4984 0.1407 0.0000
vt 0.4630 0.1407 0.0000
vt 0.4630 0.0424 0.0000
vt 0.4984 0.0424 0.0000
vt 0.5431 0.1407 0.0000
vt 0.5078 0.1407 0.0000
vt 0.5078 0.0424 0.0000
vt 0.5431 0.0424 0.0000
vt 0.5867 0.1407 0.0000
vt 0.5513 0.1407 0.0000
vt 0.5513 0.0424 0.0000
vt 0.5867 0.0424 0.0000
vt 0.6315 0.1407 0.0000
vt 0.5961 0.1407 0.0000
vt 0.5961 0.0424 0.0000
vt 0.6315 0.0424 0.0000
vt 0.6750 0.1407 0.0000
vt 0.6396 0.1407 0.0000
vt 0.6396 0.0424 0.0000
vt 0.6750 0.0425 0.0000
vt 0.7198 0.1407 0.0000
vt 0.6844 0.1407 0.0000
vt 0.6844 0.0425 0.0000
vt 0.7198 0.0425 0.0000
vt 0.7633 0.1407 0.0000
vt 0.7280 0.1407 0.0000
vt 0.7280 0.0425 0.0000
vt 0.7633 0.0425 0.0000
vt 0.8081 0.1408 0.0000
vt 0.7727 0.1407 0.0000
vt 0.7727 0.0425 0.0000
vt 0.8081 0.0425 0.0000
vt 0.8517 0.1408 0.0000
vt 0.8163 0.1408 0.0000
vt 0.8163 0.0425 0.0000
vt 0.8517 0.0425 0.0000
vt 0.8964 0.1408 0.0000
vt 0.8611 0.1408 0.0000
vt 0.8611 0.0425 0.0000
vt 0.8964 0.0425 0.0000
vt 0.9403 0.1409 0.0000
vt 0.9047 0.1408 0.0000
vt 0.9047 0.0425 0.0000
vt 0.9403 0.0424 0.0000
vt 0.0474 0.0423 0.0000
vt 0.0474 0.1405 0.0000
vt 0.9535 0.1405 0.0000
vt 0.9535 0.0427 0.0000
vt 0.9382 0.1559 0.0000
vt 0.9382 0.2547 0.0000
vt 0.9018 0.2547 0.0000
vt 0.9018 0.1559 0.0000
vt 0.8930 0.1559 0.0000
vt 0.8930 0.2547 0.0000
vt 0.8574 0.2547 0.0000
vt 0.8574 0.1559 0.0000
vt 0.8485 0.1559 0.0000
vt 0.8485 0.2547 0.0000
vt 0.8130 0.2547 0.0000
vt 0.8130 0.1559 0.0000
vt 0.8041 0.1559 0.0000
vt 0.8041 0.2547 0.0000
vt 0.7686 0.2547 0.0000
vt 0.7686 0.1559 0.0000
vt 0.7597 0.1559 0.0000
vt 0.7597 0.2547 0.0000
vt 0.7242 0.2547 0.0000
vt 0.7242 0.1559 0.0000
vt 0.7153 0.1559 0.0000
vt 0.7153 0.2547 0.0000
vt 0.6798 0.2547 0.0000
vt 0.6798 0.1559 0.0000
vt 0.6709 0.1559 0.0000
vt 0.6709 0.2547 0.0000
vt 0.6354 0.2547 0.0000
vt 0.6354 0.1559 0.0000
vt 0.6266 0.1559 0.0000
vt 0.6266 0.2547 0.0000
vt 0.5910 0.2547 0.0000
vt 0.5910 0.1559 0.0000
vt 0.5822 0.1559 0.0000
vt 0.5822 0.2547 0.0000
vt 0.5466 0.2547 0.0000
vt 0.5466 0.1559 0.0000
vt 0.5378 0.1559 0.0000
vt 0.5378 0.2547 0.0000
vt 0.5022 0.2547 0.0000
vt 0.5022 0.1559 0.0000
vt 0.4933 0.1559 0.0000
vt 0.4933 0.2547 0.0000
vt 0.4578 0.2547 0.0000
vt 0.4578 0.1559 0.0000
vt 0.4489 0.1559 0.0000
vt 0.4489 0.2547 0.0000
vt 0.4134 0.2547 0.0000
vt 0.4134 0.1559 0.0000
vt 0.4045 0.1559 0.0000
vt 0.4045 0.2547 0.0000
vt 0.3690 0.2547 0.0000
vt 0.3690 0.1559 0.0000
vt 0.3601 0.1559 0.0000
vt 0.3601 0.2547 0.0000
vt 0.3246 0.2547 0.0000
vt 0.3246 0.1559 0.0000
vt 0.3157 0.1559 0.0000
vt 0.3157 0.2547 0.0000
vt 0.2802 0.2547 0.0000
vt 0.2802 0.1559 0.0000
vt 0.2713 0.1559 0.0000
vt 0.2713 0.2547 0.0000
vt 0.2358 0.2547 0.0000
vt 0.2358 0.1559 0.0000
vt 0.2269 0.1559 0.0000
vt 0.2269 0.2547 0.0000
vt 0.1914 0.2547 0.0000
vt 0.1914 0.1559 0.0000
vt 0.1825 0.1559 0.0000
vt 0.1825 0.2547 0.0000
vt 0.1469 0.2547 0.0000
vt 0.1469 0.1559 0.0000
vt 0.1381 0.1559 0.0000
vt 0.1381 0.2547 0.0000
vt 0.1025 0.2547 0.0000
vt 0.1025 0.1559 0.0000
vt 0.0937 0.1559 0.0000
vt 0.0937 0.2547 0.0000
vt 0.0581 0.2547 0.0000
vt 0.0581 0.1559 0.0000
vt 0.9554 0.1559 0.0000
vt 0.9554 0.2547 0.0000
vt 0.0446 0.2547 0.0000
vt 0.0446 0.1559 0.0000
vt 0.0650 0.0415 0.0000
vt 0.1004 0.0405 0.0000
vt 0.1004 0.1424 0.0000
vt 0.0650 0.1413 0.0000
vt 0.1108 0.0405 0.0000
vt 0.1462 0.0405 0.0000
vt 0.1462 0.1424 0.0000
vt 0.1108 0.1424 0.0000
vt 0.1533 0.0405 0.0000
vt 0.1886 0.0405 0.0000
vt 0.1886 0.1424 0.0000
vt 0.1533 0.1424 0.0000
vt 0.1992 0.0405 0.0000
vt 0.2346 0.0405 0.0000
vt 0.2346 0.1424 0.0000
vt 0.1992 0.1424 0.0000
vt 0.2416 0.0405 0.0000
vt 0.2770 0.0405 0.0000
vt 0.2770 0.1424 0.0000
vt 0.2416 0.1424 0.0000
vt 0.2875 0.0405 0.0000
vt 0.3229 0.0405 0.0000
vt 0.3229 0.1424 0.0000
vt 0.2875 0.1424 0.0000
vt 0.3299 0.0405 0.0000
vt 0.3653 0.0405 0.0000
vt 0.3653 0.1425 0.0000
vt 0.3299 0.1424 0.0000
vt 0.3758 0.0405 0.0000
vt 0.4112 0.0405 0.0000
vt 0.4112 0.1425 0.0000
vt 0.3758 0.1425 0.0000
vt 0.4183 0.0405 0.0000
vt 0.4536 0.0405 0.0000
vt 0.4536 0.1425 0.0000
vt 0.4183 0.1425 0.0000
vt 0.4642 0.0405 0.0000
vt 0.4996 0.0405 0.0000
vt 0.4995 0.1425 0.0000
vt 0.4642 0.1425 0.0000
vt 0.5066 0.0406 0.0000
vt 0.5420 0.0406 0.0000
vt 0.5420 0.1425 0.0000
vt 0.5066 0.1425 0.0000
vt 0.5525 0.0406 0.0000
vt 0.5879 0.0406 0.0000
vt 0.5879 0.1425 0.0000
vt 0.5525 0.1425 0.0000
vt 0.5949 0.0406 0.0000
vt 0.6303 0.0406 0.0000
vt 0.6303 0.1426 0.0000
vt 0.5949 0.1425 0.0000
vt 0.6408 0.0406 0.0000
vt 0.6762 0.0406 0.0000
vt 0.6762 0.1426 0.0000
vt 0.6408 0.1426 0.0000
vt 0.6832 0.0406 0.0000
vt 0.7186 0.0406 0.0000
vt 0.7186 0.1426 0.0000
vt 0.6832 0.1426 0.0000
vt 0.7291 0.0406 0.0000
vt 0.7645 0.0406 0.0000
vt 0.7645 0.1426 0.0000
vt 0.7291 0.1426 0.0000
vt 0.7716 0.0406 0.0000
vt 0.8069 0.0406 0.0000
vt 0.8069 0.1426 0.0000
vt 0.7715 0.1426 0.0000
vt 0.8175 0.0406 0.0000
vt 0.8528 0.0406 0.0000
vt 0.8528 0.1426 0.0000
vt 0.8175 0.1426 0.0000
vt 0.8599 0.0406 0.0000
vt 0.8953 0.0406 0.0000
vt 0.8953 0.1426 0.0000
vt 0.8599 0.1426 0.0000
vt 0.9057 0.0407 0.0000
vt 0.9404 0.0413 0.0000
vt 0.9404 0.1419 0.0000
vt 0.9057 0.1426 0.0000
vt 0.0496 0.1414 0.0000
vt 0.0446 0.1406 0.0000
vt 0.0446 0.0423 0.0000
vt 0.0496 0.0415 0.0000
vt 0.9537 0.0422 0.0000
vt 0.9537 0.1410 0.0000
vt 0.9536 0.9538 0.0000
vt 0.7326 0.9538 0.0000
vt 0.7326 0.2640 0.0000
vt 0.9536 0.2640 0.0000
vt 0.4918 0.9535 0.0000
vt 0.4918 0.2637 0.0000
vt 0.7128 0.2637 0.0000
vt 0.7128 0.9535 0.0000
vt 0.2279 0.4457 0.0000
vt 0.2231 0.8978 0.0000
vt 0.2185 0.8930 0.0000
vt 0.2232 0.4504 0.0000
vt 0.0751 0.8962 0.0000
vt 0.0799 0.8916 0.0000
vt 0.0799 0.4442 0.0000
vt 0.0845 0.4489 0.0000
# 286 texture coords

g Bridge_element
s 2
f 1/1/1 2/2/1 3/3/1 4/4/1 
s 4
f 5/5/2 6/6/2 7/7/2 8/8/2 
s 8
f 1/9/3 4/10/3 6/11/3 5/12/3 
s 16
f 4/10/4 3/13/4 7/14/4 6/11/4 
s 32
f 3/13/5 2/15/5 8/16/5 7/14/5 
s 64
f 2/15/6 1/9/6 5/12/6 8/16/6 
s 1
f 9/17/7 10/18/8 11/19/8 12/20/7 
f 13/21/9 14/22/10 15/23/10 16/24/9 
f 17/25/11 18/26/11 19/27/11 20/28/11 
f 21/29/9 22/30/9 23/31/9 24/32/9 
f 25/33/11 26/34/11 27/35/11 28/36/11 
f 29/37/9 30/38/9 31/39/9 32/40/9 
f 33/41/11 34/42/11 35/43/11 36/44/11 
f 37/45/9 38/46/9 39/47/9 40/48/9 
f 41/49/11 42/50/11 43/51/11 44/52/11 
f 45/53/9 46/54/9 47/55/9 48/56/9 
f 49/57/11 50/58/11 51/59/11 52/60/11 
f 53/61/9 54/62/9 55/63/9 56/64/9 
f 57/65/11 58/66/11 59/67/11 60/68/11 
f 61/69/9 62/70/9 63/71/9 64/72/9 
f 65/73/11 66/74/11 67/75/11 68/76/11 
f 69/77/9 70/78/9 71/79/9 72/80/9 
f 73/81/11 74/82/11 75/83/11 76/84/11 
f 77/85/9 78/86/9 79/87/9 80/88/9 
f 81/89/11 82/90/11 83/91/11 84/92/11 
f 85/93/12 86/94/13 87/95/13 88/96/12 
f 89/97/14 11/19/8 10/18/8 90/98/14 
f 14/22/10 9/17/7 12/20/7 15/23/10 
f 18/26/11 13/21/9 16/24/9 19/27/11 
f 22/30/9 17/25/11 20/28/11 23/31/9 
f 26/34/11 21/29/9 24/32/9 27/35/11 
f 30/38/9 25/33/11 28/36/11 31/39/9 
f 34/42/11 29/37/9 32/40/9 35/43/11 
f 38/46/9 33/41/11 36/44/11 39/47/9 
f 42/50/11 37/45/9 40/48/9 43/51/11 
f 46/54/9 41/49/11 44/52/11 47/55/9 
f 50/58/11 45/53/9 48/56/9 51/59/11 
f 54/62/9 49/57/11 52/60/11 55/63/9 
f 58/66/11 53/61/9 56/64/9 59/67/11 
f 62/70/9 57/65/11 60/68/11 63/71/9 
f 66/74/11 61/69/9 64/72/9 67/75/11 
f 70/78/9 65/73/11 68/76/11 71/79/9 
f 74/82/11 69/77/9 72/80/9 75/83/11 
f 78/86/9 73/81/11 76/84/11 79/87/9 
f 82/90/11 77/85/9 80/88/9 83/91/11 
f 86/94/13 81/89/11 84/92/11 87/95/13 
f 91/99/15 85/93/12 88/96/12 92/100/15 
f 93/101/16 94/102/16 95/103/17 96/104/17 
f 97/105/18 98/106/18 99/107/18 100/108/18 
f 101/109/19 102/110/19 103/111/19 104/112/19 
f 105/113/18 106/114/18 107/115/18 108/116/18 
f 109/117/19 110/118/19 111/119/19 112/120/19 
f 113/121/18 114/122/18 115/123/18 116/124/18 
f 117/125/19 118/126/19 119/127/19 120/128/19 
f 121/129/18 122/130/18 123/131/18 124/132/18 
f 125/133/19 126/134/19 127/135/19 128/136/19 
f 129/137/18 130/138/18 131/139/18 132/140/18 
f 133/141/19 134/142/19 135/143/19 136/144/19 
f 137/145/18 138/146/18 139/147/18 140/148/18 
f 141/149/19 142/150/19 143/151/19 144/152/19 
f 145/153/18 146/154/18 147/155/18 148/156/18 
f 149/157/19 150/158/19 151/159/19 152/160/19 
f 153/161/18 154/162/18 155/163/18 156/164/18 
f 157/165/19 158/166/19 159/167/19 160/168/19 
f 161/169/18 162/170/18 163/171/18 164/172/18 
f 165/173/19 166/174/19 167/175/19 168/176/19 
f 169/177/18 170/178/18 171/179/20 172/180/20 
f 94/102/16 93/101/16 173/181/21 174/182/21 
f 96/104/17 95/103/17 98/106/18 97/105/18 
f 100/108/18 99/107/18 102/110/19 101/109/19 
f 104/112/19 103/111/19 106/114/18 105/113/18 
f 108/116/18 107/115/18 110/118/19 109/117/19 
f 112/120/19 111/119/19 114/122/18 113/121/18 
f 116/124/18 115/123/18 118/126/19 117/125/19 
f 120/128/19 119/127/19 122/130/18 121/129/18 
f 124/132/18 123/131/18 126/134/19 125/133/19 
f 128/136/19 127/135/19 130/138/18 129/137/18 
f 132/140/18 131/139/18 134/142/19 133/141/19 
f 136/144/19 135/143/19 138/146/18 137/145/18 
f 140/148/18 139/147/18 142/150/19 141/149/19 
f 144/152/19 143/151/19 146/154/18 145/153/18 
f 148/156/18 147/155/18 150/158/19 149/157/19 
f 152/160/19 151/159/19 154/162/18 153/161/18 
f 156/164/18 155/163/18 158/166/19 157/165/19 
f 160/168/19 159/167/19 162/170/18 161/169/18 
f 164/172/18 163/171/18 166/174/19 165/173/19 
f 168/176/19 167/175/19 170/178/18 169/177/18 
f 172/180/20 171/179/20 175/183/22 176/184/22 
s 2
f 93/185/3 96/186/3 12/20/3 11/19/3 
f 95/187/5 94/188/5 10/18/5 9/17/5 
f 97/189/3 100/190/3 16/24/3 15/23/3 
f 99/191/5 98/192/5 14/22/5 13/21/5 
f 101/193/3 104/194/3 20/28/3 19/27/3 
f 103/195/5 102/196/5 18/26/5 17/25/5 
f 105/197/3 108/198/3 24/32/3 23/31/3 
f 107/199/5 106/200/5 22/30/5 21/29/5 
f 109/201/3 112/202/3 28/36/3 27/35/3 
f 111/203/5 110/204/5 26/34/5 25/33/5 
f 113/205/3 116/206/3 32/40/3 31/39/3 
f 115/207/5 114/208/5 30/38/5 29/37/5 
f 117/209/3 120/210/3 36/44/3 35/43/3 
f 119/211/5 118/212/5 34/42/5 33/41/5 
f 121/213/3 124/214/3 40/48/3 39/47/3 
f 123/215/5 122/216/5 38/46/5 37/45/5 
f 125/217/3 128/218/3 44/52/3 43/51/3 
f 127/219/5 126/220/5 42/50/5 41/49/5 
f 129/221/3 132/222/3 48/56/3 47/55/3 
f 131/223/5 130/224/5 46/54/5 45/53/5 
f 133/225/3 136/226/3 52/60/3 51/59/3 
f 135/227/5 134/228/5 50/58/5 49/57/5 
f 137/229/3 140/230/3 56/64/3 55/63/3 
f 139/231/5 138/232/5 54/62/5 53/61/5 
f 141/233/3 144/234/3 60/68/3 59/67/3 
f 143/235/5 142/236/5 58/66/5 57/65/5 
f 145/237/3 148/238/3 64/72/3 63/71/3 
f 147/239/5 146/240/5 62/70/5 61/69/5 
f 149/241/3 152/242/3 68/76/3 67/75/3 
f 151/243/5 150/244/5 66/74/5 65/73/5 
f 153/245/3 156/246/3 72/80/3 71/79/3 
f 155/247/5 154/248/5 70/78/5 69/77/5 
f 157/249/3 160/250/3 76/84/3 75/83/3 
f 159/251/5 158/252/5 74/82/5 73/81/5 
f 161/253/3 164/254/3 80/88/3 79/87/3 
f 163/255/5 162/256/5 78/86/5 77/85/5 
f 165/257/3 168/258/3 84/92/3 83/91/3 
f 167/259/5 166/260/5 82/90/5 81/89/5 
f 169/261/3 172/262/3 88/96/3 87/95/3 
f 171/263/5 170/264/5 86/94/5 85/93/5 
f 94/188/5 174/265/5 90/98/5 10/18/5 
s 4
f 174/266/23 173/267/23 89/97/23 90/98/23 
s 2
f 173/268/3 93/185/3 11/19/3 89/97/3 
f 96/186/3 97/189/3 15/23/3 12/20/3 
f 98/192/5 95/187/5 9/17/5 14/22/5 
f 100/190/3 101/193/3 19/27/3 16/24/3 
f 102/196/5 99/191/5 13/21/5 18/26/5 
f 104/194/3 105/197/3 23/31/3 20/28/3 
f 106/200/5 103/195/5 17/25/5 22/30/5 
f 108/198/3 109/201/3 27/35/3 24/32/3 
f 110/204/5 107/199/5 21/29/5 26/34/5 
f 112/202/3 113/205/3 31/39/3 28/36/3 
f 114/208/5 111/203/5 25/33/5 30/38/5 
f 116/206/3 117/209/3 35/43/3 32/40/3 
f 118/212/5 115/207/5 29/37/5 34/42/5 
f 120/210/3 121/213/3 39/47/3 36/44/3 
f 122/216/5 119/211/5 33/41/5 38/46/5 
f 124/214/3 125/217/3 43/51/3 40/48/3 
f 126/220/5 123/215/5 37/45/5 42/50/5 
f 128/218/3 129/221/3 47/55/3 44/52/3 
f 130/224/5 127/219/5 41/49/5 46/54/5 
f 132/222/3 133/225/3 51/59/3 48/56/3 
f 134/228/5 131/223/5 45/53/5 50/58/5 
f 136/226/3 137/229/3 55/63/3 52/60/3 
f 138/232/5 135/227/5 49/57/5 54/62/5 
f 140/230/3 141/233/3 59/67/3 56/64/3 
f 142/236/5 139/231/5 53/61/5 58/66/5 
f 144/234/3 145/237/3 63/71/3 60/68/3 
f 146/240/5 143/235/5 57/65/5 62/70/5 
f 148/238/3 149/241/3 67/75/3 64/72/3 
f 150/244/5 147/239/5 61/69/5 66/74/5 
f 152/242/3 153/245/3 71/79/3 68/76/3 
f 154/248/5 151/243/5 65/73/5 70/78/5 
f 156/246/3 157/249/3 75/83/3 72/80/3 
f 158/252/5 155/247/5 69/77/5 74/82/5 
f 160/250/3 161/253/3 79/87/3 76/84/3 
f 162/256/5 159/251/5 73/81/5 78/86/5 
f 164/254/3 165/257/3 83/91/3 80/88/3 
f 166/260/5 163/255/5 77/85/5 82/90/5 
f 168/258/3 169/261/3 87/95/3 84/92/3 
f 170/264/5 167/259/5 81/89/5 86/94/5 
f 172/262/3 176/269/3 92/100/3 88/96/3 
s 4
f 176/269/24 175/270/24 91/99/24 92/100/24 
s 2
f 175/270/5 171/263/5 85/93/5 91/99/5 
f 177/271/1 178/272/1 179/273/1 180/274/1 
s 4
f 181/275/2 182/276/2 183/277/2 184/278/2 
s 8
f 177/279/3 180/280/3 182/281/3 181/282/3 
s 16
f 180/280/4 179/283/4 183/284/4 182/281/4 
s 32
f 179/283/5 178/285/5 184/286/5 183/284/5 
s 64
f 178/285/6 177/279/6 181/282/6 184/286/6 
# 178 polygons

