# 3ds Max Wavefront OBJ Exporter v0.97b - (c)2007 guruware
# File Created: 30.06.2015 23:12:31

#
# object Bridge_post
#

v  2.8315 80.6519 -1.5722
v  2.8249 79.9090 1.6095
v  2.8170 78.1984 1.6264
v  -1.6205 72.4672 -2.8202
v  -1.5967 53.0573 -2.8287
v  -2.8149 56.4062 -1.6298
v  -2.8257 73.3802 -1.6071
v  -2.8295 62.0309 1.5928
v  -2.8199 75.6227 1.6211
v  -1.6323 66.4330 2.8133
v  -1.6060 76.8699 2.8261
v  1.5911 73.3466 2.8299
v  1.6200 79.0550 2.8204
v  -1.6137 -0.0000 2.8233
v  -1.6137 4.9642 2.8233
v  -2.8233 2.2070 1.6137
v  -2.8233 -0.0000 1.6137
v  1.6137 -0.0000 2.8233
v  1.6137 11.8560 2.8233
v  2.8233 -0.0000 1.6137
v  2.8233 14.1439 1.6137
v  2.8233 0.0000 -1.6137
v  2.8233 19.3684 -1.6137
v  1.6137 0.0000 -2.8233
v  1.6137 21.4535 -2.8233
v  -1.6137 0.0000 -2.8233
v  -1.6137 25.3948 -2.8233
v  -2.8233 0.0000 -1.6137
v  -2.8233 27.6103 -1.6137
v  -2.8233 32.0769 1.6137
v  2.8229 40.8080 1.6146
v  1.6137 38.6708 2.8233
v  2.8180 44.7200 -1.6246
v  1.6039 46.2715 -2.8268
v  -1.6239 49.2693 -2.8184
v  -2.8273 51.2261 -1.6021
v  -2.8181 54.5832 1.6245
v  -1.6137 34.4510 2.8233
v  -1.6000 56.5549 2.8279
v  2.8281 64.9489 1.5991
v  1.6292 62.1908 2.8153
v  2.8285 46.0722 -1.5977
v  2.8182 68.5956 -1.6242
v  1.6271 48.8330 -2.8166
v  1.6048 70.1336 -2.8265
v  2.7232 78.1984 1.5722
v  2.7232 79.9090 1.5722
v  2.7232 80.6519 -1.5722
v  -2.7232 56.4062 -1.5722
v  -1.5722 53.0573 -2.7232
v  -1.5722 72.4672 -2.7232
v  -2.7232 73.3802 -1.5722
v  -2.7232 62.0309 1.5722
v  -2.7232 75.6227 1.5722
v  -1.5722 66.4330 2.7232
v  -1.5722 76.8699 2.7232
v  1.5722 73.3466 2.7232
v  1.5722 79.0550 2.7232
v  -2.7232 2.2070 1.5722
v  -1.5722 4.9642 2.7232
v  -1.5722 -0.0000 2.7232
v  -2.7232 -0.0000 1.5722
v  1.5722 11.8560 2.7232
v  1.5722 -0.0000 2.7232
v  2.7232 14.1439 1.5722
v  2.7232 -0.0000 1.5722
v  2.7232 19.3684 -1.5722
v  2.7232 0.0000 -1.5722
v  1.5722 21.4535 -2.7232
v  1.5722 0.0000 -2.7232
v  -1.5722 25.3948 -2.7232
v  -1.5722 0.0000 -2.7232
v  -2.7232 27.6103 -1.5722
v  -2.7232 0.0000 -1.5722
v  -2.7232 32.0769 1.5722
v  1.5722 38.6708 2.7232
v  2.7232 40.8080 1.5722
v  2.7232 44.7200 -1.5722
v  1.5722 46.2715 -2.7232
v  -1.5722 49.2693 -2.7232
v  -2.7232 51.2261 -1.5722
v  -2.7232 54.5832 1.5722
v  -1.5722 34.4510 2.7232
v  -1.5722 56.5549 2.7232
v  1.5722 62.1908 2.7232
v  2.7232 64.9489 1.5722
v  2.7232 68.5956 -1.5722
v  2.7232 46.0722 -1.5722
v  1.5722 70.1336 -2.7232
v  1.5722 48.8330 -2.7232
# 90 vertices

vn 1.0000 -0.0046 0.0010
vn 0.9577 -0.0016 0.2877
vn 0.8236 -0.0012 0.5671
vn -0.5209 0.0005 -0.8536
vn -0.1138 -0.0004 -0.9935
vn -0.7830 -0.0005 -0.6220
vn -0.9683 0.0006 -0.2497
vn -0.9962 -0.0006 0.0866
vn -0.8495 0.0008 0.5275
vn -0.6382 -0.0009 0.7698
vn -0.2276 0.0008 0.9738
vn 0.0785 -0.0007 0.9969
vn 0.5126 0.0009 0.8586
vn -0.3827 -0.0000 0.9239
vn -0.9239 -0.0000 0.3827
vn 0.3827 -0.0000 0.9239
vn 0.9239 -0.0000 0.3827
vn 0.9239 0.0000 0.3827
vn 0.9239 0.0000 -0.3827
vn 0.9239 -0.0000 -0.3827
vn 0.3827 0.0000 -0.9239
vn 0.3826 -0.0001 -0.9239
vn -0.3827 0.0000 -0.9239
vn -0.3828 -0.0001 -0.9238
vn -0.9239 0.0000 -0.3827
vn -0.9239 -0.0001 -0.3826
vn -0.9238 -0.0001 0.3828
vn 0.9203 -0.0000 0.3913
vn 0.3827 -0.0001 0.9239
vn 0.8160 0.0002 -0.5781
vn 0.1957 0.0002 -0.9807
vn -0.5636 0.0002 -0.8261
vn -0.9854 0.0002 -0.1704
vn -0.8196 0.0003 0.5729
vn -0.3826 -0.0001 0.9239
vn -0.1560 0.0003 0.9878
vn 0.9908 0.0004 0.1351
vn 0.6192 0.0003 0.7852
vn 0.9918 -0.0002 -0.1281
vn 0.8200 0.0004 -0.5724
vn 0.5981 -0.0005 -0.8014
vn 0.2055 0.0004 -0.9787
vn -0.8243 0.0000 -0.5662
vn -0.9581 0.0000 -0.2865
vn -1.0000 0.0000 -0.0000
vn 0.7852 -0.0000 0.6192
vn 0.1127 -0.0000 0.9936
vn 0.5222 -0.0000 0.8528
vn 0.9690 -0.0000 0.2470
vn 0.9962 0.0000 -0.0866
vn 0.8487 0.0000 -0.5289
vn 0.6350 0.0000 -0.7725
vn 0.2236 0.0000 -0.9747
vn -0.0775 0.0000 -0.9970
vn -0.5152 0.0000 -0.8570
vn -0.9203 0.0000 -0.3913
vn -0.8158 -0.0000 0.5783
vn -0.1933 -0.0000 0.9811
vn 0.5631 -0.0000 0.8264
vn 0.9858 -0.0000 0.1680
vn 0.8203 0.0000 -0.5719
vn 0.1545 0.0000 -0.9880
vn -0.6169 0.0000 -0.7871
vn -0.9911 0.0000 -0.1331
vn -0.8199 -0.0000 0.5725
vn -0.9921 -0.0000 0.1254
vn -0.2024 -0.0000 0.9793
vn -0.5961 -0.0000 0.8029
vn -0.0017 0.9738 0.2274
vn -0.1305 0.9307 0.3418
vn -0.1242 0.9316 0.3417
vn 0.0000 0.9738 0.2274
vn 0.4088 -0.5692 -0.7134
vn 0.0000 -0.7884 -0.6152
vn 0.0053 -0.7885 -0.6150
vn 0.4316 -0.5213 -0.7362
vn 0.1834 0.8325 -0.5227
vn 0.5123 0.8212 -0.2513
vn 0.5035 0.8243 -0.2588
vn 0.1756 0.8296 -0.5300
vn -0.8456 -0.4943 0.2014
vn -0.4765 -0.4338 0.7647
vn -0.4846 -0.4334 0.7599
vn -0.8446 -0.4999 0.1916
vn -0.2769 0.7848 -0.5545
vn -0.2870 0.7853 -0.5486
vn 0.1792 -0.3946 0.9012
vn 0.1709 -0.3999 0.9005
vn -0.5781 0.7921 -0.1960
vn -0.5805 0.7928 -0.1859
vn 0.7801 -0.3529 0.5167
vn 0.7760 -0.3517 0.5236
vn -0.4905 0.8383 0.2379
vn -0.4820 0.8411 0.2452
vn 0.9238 -0.3440 -0.1680
vn 0.9237 -0.3481 -0.1602
vn 0.0000 -1.0000 -0.0000
vn -0.0000 -1.0000 0.0000
vn -0.0000 -1.0000 -0.0000
vn 0.3645 0.6497 0.6671
vn -0.3140 0.5948 0.7400
vn -0.3043 0.5970 0.7423
vn 0.3730 0.6547 0.6574
vn 0.6770 0.7043 0.2135
vn 0.6803 0.7042 0.2031
vn 0.6631 0.6586 -0.3558
vn 0.6595 0.6557 -0.3675
vn 0.2178 0.6397 -0.7371
vn 0.2069 0.6416 -0.7386
vn -0.3701 0.6344 -0.6787
vn -0.3808 0.6339 -0.6732
vn -0.8088 0.5450 -0.2211
vn -0.8174 0.5354 -0.2126
vn -0.2110 0.5581 0.8025
vn -0.7533 0.4683 0.4619
vn -0.7465 0.4712 0.4697
vn -0.2005 0.5632 0.8016
vn 0.3357 -0.4908 -0.8040
vn -0.2109 -0.4863 -0.8479
vn -0.2019 -0.4871 -0.8497
vn 0.3405 -0.4900 -0.8024
vn 0.3558 0.6637 0.6580
vn 0.3641 0.6681 0.6489
vn -0.7352 -0.5255 -0.4282
vn -0.7312 -0.5226 -0.4384
vn 0.6316 0.7476 0.2053
vn 0.6322 0.7500 0.1944
# 127 vertex normals

vt 0.0635 0.0461 0.0000
vt 0.1029 0.0467 0.0000
vt 0.1038 0.0552 0.0000
vt 0.2484 0.0740 0.0000
vt 0.2540 0.1698 0.0000
vt 0.2322 0.1545 0.0000
vt 0.2269 0.0708 0.0000
vt 0.1909 0.1292 0.0000
vt 0.1863 0.0622 0.0000
vt 0.1685 0.1089 0.0000
vt 0.1648 0.0574 0.0000
vt 0.1266 0.0775 0.0000
vt 0.1243 0.0494 0.0000
vt 0.9012 0.4296 0.0000
vt 0.9030 0.4052 0.0000
vt 0.9233 0.4206 0.0000
vt 0.9218 0.4314 0.0000
vt 0.8618 0.4273 0.0000
vt 0.8650 0.3688 0.0000
vt 0.8410 0.4263 0.0000
vt 0.8442 0.3565 0.0000
vt 0.8015 0.4246 0.0000
vt 0.8053 0.3290 0.0000
vt 0.7807 0.4239 0.0000
vt 0.7842 0.3179 0.0000
vt 0.7413 0.4227 0.0000
vt 0.7446 0.2973 0.0000
vt 0.7206 0.4222 0.0000
vt 0.7234 0.2858 0.0000
vt 0.6836 0.2631 0.0000
vt 0.6814 0.4107 0.0000
vt 0.9607 0.4384 0.0000
vt 0.6009 0.3512 0.0000
vt 0.6006 0.2194 0.0000
vt 0.6221 0.2300 0.0000
vt 0.6216 0.3625 0.0000
vt 0.5613 0.3256 0.0000
vt 0.5602 0.2003 0.0000
vt 0.5404 0.3156 0.0000
vt 0.5387 0.1929 0.0000
vt 0.5006 0.2967 0.0000
vt 0.4983 0.1788 0.0000
vt 0.4796 0.2863 0.0000
vt 0.4767 0.1696 0.0000
vt 0.4395 0.2653 0.0000
vt 0.4361 0.1541 0.0000
vt 0.4183 0.2542 0.0000
vt 0.4144 0.1451 0.0000
vt 0.3567 0.2252 0.0000
vt 0.3514 0.1060 0.0000
vt 0.3733 0.1187 0.0000
vt 0.3780 0.2349 0.0000
vt 0.3162 0.2010 0.0000
vt 0.3106 0.0898 0.0000
vt 0.2947 0.1885 0.0000
vt 0.2889 0.0833 0.0000
vt 0.6608 0.3968 0.0000
vt 0.6622 0.2511 0.0000
vt 0.7862 0.5950 0.0000
vt 0.7866 0.5865 0.0000
vt 0.8259 0.5850 0.0000
vt 0.6632 0.6991 0.0000
vt 0.6418 0.7148 0.0000
vt 0.6459 0.6186 0.0000
vt 0.6664 0.6150 0.0000
vt 0.7036 0.6728 0.0000
vt 0.7060 0.6055 0.0000
vt 0.7250 0.6517 -0.0000
vt 0.7265 0.5999 0.0000
vt 0.7650 0.6184 0.0000
vt 0.7660 0.5901 0.0000
vt 0.7869 0.8569 0.0000
vt 0.7798 0.8838 -0.0000
vt 0.7718 0.8643 -0.0000
vt 0.7782 0.8474 0.0000
vt 0.7353 0.9213 0.0000
vt 0.7361 0.8617 0.0000
vt 0.7102 0.9289 0.0000
vt 0.7192 0.8578 0.0000
vt 0.6646 0.9458 0.0000
vt 0.6831 0.8495 0.0000
vt 0.6419 0.9508 0.0000
vt 0.6658 0.8432 0.0000
vt 0.1178 0.8384 0.0000
vt 0.1580 0.8216 0.0000
vt 0.1491 0.9473 0.0000
vt 0.1103 0.9445 0.0000
vt 0.1788 0.8122 0.0000
vt 0.1693 0.9488 0.0000
vt 0.2191 0.7928 0.0000
vt 0.2090 0.9406 0.0000
vt 0.8102 0.8232 0.0000
vt 0.2801 0.7644 0.0000
vt 0.3008 0.7553 0.0000
vt 0.2926 0.8873 0.0000
vt 0.2715 0.8971 0.0000
vt 0.3409 0.7384 0.0000
vt 0.3334 0.8639 0.0000
vt 0.3618 0.7321 0.0000
vt 0.3545 0.8550 0.0000
vt 0.4018 0.7198 0.0000
vt 0.3949 0.8380 0.0000
vt 0.4228 0.7114 0.0000
vt 0.4161 0.8284 0.0000
vt 0.4629 0.6972 0.0000
vt 0.4567 0.8087 0.0000
vt 0.4779 0.7982 0.0000
vt 0.4838 0.6888 0.0000
vt 0.5244 0.6631 0.0000
vt 0.5455 0.6506 0.0000
vt 0.5395 0.7702 0.0000
vt 0.5184 0.7796 0.0000
vt 0.5855 0.6347 0.0000
vt 0.5801 0.7463 0.0000
vt 0.6063 0.6282 0.0000
vt 0.6015 0.7338 0.0000
vt 0.2400 0.7826 0.0000
vt 0.2302 0.9285 0.0000
vt 0.7098 0.8441 0.0000
vt 0.7345 0.8449 0.0000
vt 0.7345 0.8462 0.0000
vt 0.2997 0.7544 0.0000
vt 0.5399 0.7715 0.0000
# 123 texture coords

g Bridge_post
s 8
f 1/1/1 2/2/2 3/3/3 
f 4/4/4 5/5/5 6/6/6 7/7/7 
f 7/7/7 6/6/6 8/8/8 9/9/9 
f 9/9/9 8/8/8 10/10/10 11/11/11 
f 11/11/11 10/10/10 12/12/12 13/13/13 
f 13/13/13 12/12/12 3/3/3 2/2/2 
f 14/14/14 15/15/14 16/16/15 17/17/15 
f 18/18/16 19/19/16 15/15/14 14/14/14 
f 20/20/17 21/21/18 19/19/16 18/18/16 
f 22/22/19 23/23/20 21/21/18 20/20/17 
f 24/24/21 25/25/22 23/23/20 22/22/19 
f 26/26/23 27/27/24 25/25/22 24/24/21 
f 28/28/25 29/29/26 27/27/24 26/26/23 
f 30/30/27 29/29/26 28/28/25 16/31/15 
f 28/32/25 17/17/15 16/16/15 
f 21/33/18 31/34/28 32/35/29 19/36/16 
f 23/37/20 33/38/30 31/34/28 21/33/18 
f 25/39/22 34/40/31 33/38/30 23/37/20 
f 27/41/24 35/42/32 34/40/31 25/39/22 
f 29/43/26 36/44/33 35/42/32 27/41/24 
f 30/45/27 37/46/34 36/44/33 29/43/26 
f 37/46/34 30/45/27 38/47/35 39/48/36 
f 31/49/28 40/50/37 41/51/38 32/52/29 
f 42/53/39 43/54/40 40/50/37 31/49/28 
f 44/55/41 45/56/42 43/54/40 42/53/39 
f 5/5/5 4/4/4 45/56/42 44/55/41 
f 39/48/36 38/47/35 32/52/29 41/51/38 
f 15/57/14 38/58/35 30/30/27 16/31/15 
f 19/36/16 32/35/29 38/58/35 15/57/14 
f 46/59/43 47/60/44 48/61/45 
f 49/62/46 50/63/47 51/64/48 52/65/49 
f 53/66/50 49/62/46 52/65/49 54/67/51 
f 55/68/52 53/66/50 54/67/51 56/69/53 
f 57/70/54 55/68/52 56/69/53 58/71/55 
f 46/59/43 57/70/54 58/71/55 47/60/44 
f 59/72/19 60/73/21 61/74/21 62/75/19 
f 60/73/21 63/76/23 64/77/23 61/74/21 
f 63/76/23 65/78/25 66/79/25 64/77/23 
f 65/78/25 67/80/15 68/81/15 66/79/25 
f 67/80/15 69/82/14 70/83/14 68/81/15 
f 69/84/14 71/85/16 72/86/16 70/87/14 
f 71/85/16 73/88/17 74/89/17 72/86/16 
f 74/89/17 73/88/17 75/90/19 59/91/19 
f 59/72/19 62/75/19 74/92/17 
f 76/93/23 77/94/56 65/95/25 63/96/23 
f 77/94/56 78/97/57 67/98/15 65/95/25 
f 78/97/57 79/99/58 69/100/14 67/98/15 
f 79/99/58 80/101/59 71/102/16 69/100/14 
f 80/101/59 81/103/60 73/104/17 71/102/16 
f 81/103/60 82/105/61 75/106/19 73/104/17 
f 83/107/21 75/106/19 82/105/61 84/108/62 
f 85/109/63 86/110/64 77/111/56 76/112/23 
f 86/110/64 87/113/65 88/114/66 77/111/56 
f 87/113/65 89/115/67 90/116/68 88/114/66 
f 89/115/67 51/64/48 50/63/47 90/116/68 
f 76/112/23 83/107/21 84/108/62 85/109/63 
f 75/90/19 83/117/21 60/118/21 59/91/19 
f 83/117/21 76/93/23 63/96/23 60/118/21 
s 1
f 48/61/69 47/60/70 2/60/71 1/61/72 
s 2
f 46/59/73 48/61/74 1/61/75 3/59/76 
s 1
f 52/65/77 51/64/78 4/64/79 7/65/80 
s 2
f 50/63/81 49/62/82 6/62/83 5/63/84 
s 1
f 54/67/85 52/65/77 7/65/80 9/67/86 
s 2
f 49/62/82 53/66/87 8/66/88 6/62/83 
s 1
f 56/69/89 54/67/85 9/67/86 11/69/90 
s 2
f 53/66/87 55/68/91 10/68/92 8/66/88 
s 1
f 58/71/93 56/69/89 11/69/90 13/71/94 
s 2
f 55/68/91 57/70/95 12/70/96 10/68/92 
s 1
f 47/60/70 58/71/93 13/71/94 2/60/71 
s 2
f 57/70/95 46/59/73 3/59/76 12/70/96 
s 1
f 62/75/97 61/74/98 14/74/98 17/75/97 
f 61/74/98 64/77/99 18/77/99 14/74/98 
f 64/77/99 66/79/97 20/79/97 18/77/99 
f 66/79/97 68/81/99 22/81/99 20/79/97 
f 68/81/99 70/83/99 24/83/99 22/81/99 
f 70/83/99 72/119/97 26/119/97 24/83/99 
f 72/119/97 74/120/99 28/121/99 26/119/97 
f 74/120/99 62/75/97 17/75/97 28/121/99 
f 78/97/100 77/94/101 31/122/102 33/97/103 
f 79/99/104 78/97/100 33/97/103 34/99/105 
f 80/101/106 79/99/104 34/99/105 35/101/107 
f 81/103/108 80/101/106 35/101/107 36/103/109 
f 82/105/110 81/103/108 36/103/109 37/105/111 
f 84/108/112 82/105/110 37/105/111 39/108/113 
f 86/110/114 85/109/115 41/109/116 40/110/117 
s 2
f 77/111/118 88/114/119 42/114/120 31/123/121 
s 1
f 87/113/122 86/110/114 40/110/117 43/113/123 
s 2
f 88/114/119 90/116/124 44/116/125 42/114/120 
s 1
f 89/115/126 87/113/122 43/113/123 45/115/127 
s 2
f 90/116/124 50/63/81 5/63/84 44/116/125 
s 1
f 51/64/78 89/115/126 45/115/127 4/64/79 
f 85/109/115 84/108/112 39/108/113 41/109/116 
# 88 polygons - 4 triangles

