# 3ds Max Wavefront OBJ Exporter v0.97b - (c)2007 guruware
# File Created: 13.07.2015 19:41:12

mtllib PLATFORM_Final_new.mtl

#
# object Plane001
#

v  -29.7455 10.3933 -98.2667
v  -93.1187 10.3933 -98.2667
v  -93.1187 10.3933 203.7595
v  -24.5739 10.3933 203.7595
v  31.3734 10.3933 -98.2667
v  26.2017 10.3933 203.7595
v  94.7466 10.3933 203.7595
v  94.7466 10.3933 -98.2667
v  284.3480 10.3933 203.7595
v  284.3480 10.3933 -98.2667
v  -278.3682 10.3933 -98.2667
v  -278.3682 10.3933 203.7595
v  -93.1187 -2.0449 203.7595
v  -24.5739 -2.0449 203.7595
v  26.2017 -2.0449 203.7595
v  94.7466 -2.0449 203.7595
v  296.1597 -2.0449 203.7595
v  296.1597 -2.0449 -107.8032
v  94.7466 -2.0449 -107.8032
v  -93.1187 -2.0449 -107.8032
v  -289.4099 -2.0449 -107.8032
v  -289.4099 -2.0449 203.7595
v  -97.0917 10.3933 -98.3246
v  -33.7188 10.3933 -98.3246
v  -20.0789 3.7350 -266.5507
v  -58.5235 3.7350 -266.5507
v  27.4003 10.3933 -98.3246
v  16.9984 3.7350 -266.5507
v  90.7735 10.3933 -98.3246
v  55.4434 3.7350 -266.5507
v  90.7735 -2.0449 -107.8611
v  55.4434 -1.6610 -292.7222
v  -97.0917 -2.0449 -107.8611
v  -58.5235 -1.6610 -292.7222
v  -33.7188 -2.0449 -107.8611
v  27.4003 -2.0449 -107.8611
v  -20.0789 -1.6610 -292.7222
v  16.9984 -1.6610 -292.7222
v  -29.7455 -2.0449 -107.8032
v  31.3734 -2.0449 -107.8032
# 40 vertices

vn 0.0000 1.0000 -0.0000
vn 0.0000 0.0000 1.0000
vn 0.7251 0.6886 -0.0000
vn 0.0000 0.6085 -0.7936
vn -0.7478 0.6639 -0.0000
vn 0.0000 0.9992 -0.0402
vn 0.9560 0.2255 -0.1877
vn -0.9482 0.2441 -0.2033
vn 0.0000 -0.6085 0.7936
vn 0.0000 0.9206 -0.3906
# 10 vertex normals

vt 0.4489 0.5078 0.0000
vt 0.3470 0.5078 0.0000
vt 0.3470 0.0504 0.0000
vt 0.4573 0.0504 0.0000
vt 0.5473 0.5078 0.0000
vt 0.5390 0.0504 0.0000
vt 0.6492 0.0504 0.0000
vt 0.6492 0.5078 0.0000
vt 0.9543 0.0503 0.0000
vt 0.9543 0.5078 0.0000
vt 0.0489 0.5078 0.0000
vt 0.0489 0.0503 0.0000
vt 0.3470 0.0315 0.0000
vt 0.4573 0.0315 0.0000
vt 0.5390 0.0315 0.0000
vt 0.6492 0.0315 0.0000
vt 0.9733 0.0315 0.0000
vt 0.9819 0.0503 0.0000
vt 0.9819 0.5222 0.0000
vt 0.9733 0.5315 0.0000
vt 0.6492 0.5315 0.0000
vt 0.3470 0.5315 0.0000
vt 0.0311 0.5315 0.0000
vt 0.0221 0.5222 0.0000
vt 0.0221 0.0503 0.0000
vt 0.0311 0.0315 0.0000
vt 0.0365 0.5513 0.0000
vt 0.1385 0.5513 0.0000
vt 0.2256 0.8075 0.0000
vt 0.1638 0.8075 0.0000
vt 0.2369 0.5513 0.0000
vt 0.2853 0.8076 0.0000
vt 0.3388 0.5513 0.0000
vt 0.3471 0.8076 0.0000
vt 0.3593 0.5651 0.0000
vt 0.3677 0.8214 0.0000
vt 0.0233 0.5715 0.0000
vt 0.1505 0.8278 0.0000
vt 0.0365 0.5275 0.0000
vt 0.1385 0.5275 0.0000
vt 0.3388 0.5276 0.0000
vt 0.2369 0.5276 0.0000
vt 0.2256 0.8313 0.0000
vt 0.1638 0.8313 0.0000
vt 0.2853 0.8313 0.0000
vt 0.3471 0.8313 0.0000
vt 0.4489 0.5315 0.0000
vt 0.5473 0.5315 0.0000
# 48 texture coords

g Plane001
usemtl Material__2
s off
f 1/1/1 2/2/1 3/3/1 4/4/1 
f 5/5/1 6/6/1 7/7/1 8/8/1 
f 5/5/1 1/1/1 4/4/1 6/6/1 
f 9/9/1 10/10/1 8/8/1 7/7/1 
f 11/11/1 12/12/1 3/3/1 2/2/1 
f 4/4/2 3/3/2 13/13/2 14/14/2 
f 7/7/2 6/6/2 15/15/2 16/16/2 
f 9/9/2 7/7/2 16/16/2 17/17/2 
f 10/10/3 9/9/3 17/18/3 18/19/3 
f 8/8/4 10/10/4 18/20/4 19/21/4 
f 11/11/4 2/2/4 20/22/4 21/23/4 
f 12/12/5 11/11/5 21/24/5 22/25/5 
f 3/3/2 12/12/2 22/26/2 13/13/2 
f 4/4/2 14/14/2 15/15/2 6/6/2 
f 23/27/6 24/28/6 25/29/6 26/30/6 
f 24/28/6 27/31/6 28/32/6 25/29/6 
f 27/31/6 29/33/6 30/34/6 28/32/6 
f 29/33/7 31/35/7 32/36/7 30/34/7 
f 33/37/8 23/27/8 26/30/8 34/38/8 
f 33/39/9 35/40/9 24/28/9 23/27/9 
f 31/41/9 29/33/9 27/31/9 36/42/9 
f 36/42/9 27/31/9 24/28/9 35/40/9 
f 25/29/10 37/43/10 34/44/10 26/30/10 
f 28/32/10 38/45/10 37/43/10 25/29/10 
f 30/34/10 32/46/10 38/45/10 28/32/10 
f 1/1/4 39/47/4 20/22/4 2/2/4 
f 8/8/4 19/21/4 40/48/4 5/5/4 
f 1/1/4 5/5/4 40/48/4 39/47/4 
# 28 polygons

