# 3ds Max Wavefront OBJ Exporter v0.97b - (c)2007 guruware
# File Created: 10.07.2015 02:48:49

mtllib cable.mtl

#
# object Plane001
#

v  -17.1600 1.7025 -4.7511
v  -29.1838 1.0428 -3.1014
v  -29.1838 1.0428 -0.0545
v  -17.1607 1.7025 -1.7042
v  -5.1758 0.8483 -3.4722
v  -5.1829 0.8508 -0.4253
v  6.7809 1.6492 -1.5828
v  6.7812 1.6521 1.4652
v  18.0598 1.6363 -3.1302
v  18.0684 1.6365 -0.0832
v  29.2187 0.7117 -5.1784
v  29.2187 0.7117 -2.1314
v  -29.1498 0.4237 -0.0545
v  -29.1498 0.4237 -3.1014
v  -17.1654 1.0825 -4.7511
v  -17.1654 1.0825 -1.7042
v  -5.1808 0.2284 -3.4718
v  -5.1808 0.2308 -0.4248
v  6.8013 1.0295 -1.5823
v  6.8013 1.0324 1.4657
v  18.0313 1.0169 -3.1301
v  18.0449 1.0169 -0.0831
v  29.1675 0.0938 -5.1783
v  29.1675 0.0938 -2.1314
# 24 vertices

vn 0.0088 1.0000 0.0000
vn -0.0548 0.9985 -0.0000
vn 0.0076 1.0000 -0.0000
vn 0.0079 1.0000 -0.0007
vn -0.0034 1.0000 -0.0008
vn -0.0330 0.9995 -0.0009
vn -0.0326 0.9995 -0.0009
vn 0.0459 0.9989 -0.0003
vn 0.0379 0.9993 -0.0002
vn 0.0826 0.9966 -0.0001
vn 0.0827 0.9966 0.0000
vn 0.0549 -0.9985 -0.0000
vn -0.0088 -1.0000 -0.0000
vn -0.0075 -1.0000 0.0001
vn -0.0081 -1.0000 0.0007
vn 0.0035 -1.0000 0.0008
vn 0.0330 -0.9995 0.0009
vn 0.0326 -0.9995 0.0009
vn -0.0459 -0.9989 0.0003
vn -0.0379 -0.9993 0.0001
vn -0.0827 -0.9966 0.0001
vn -0.0827 -0.9966 0.0000
vn 0.1356 0.0072 0.9907
vn 0.0152 -0.0001 0.9999
vn 0.0153 0.0001 0.9999
vn 0.1355 0.0075 0.9907
vn -0.0151 -0.0000 -0.9999
vn -0.1360 -0.0075 -0.9907
vn -0.1360 -0.0072 -0.9907
vn -0.0150 0.0001 -0.9999
vn -0.9985 -0.0549 -0.0000
vn -0.1312 0.0003 0.9914
vn -0.1311 0.0004 0.9914
vn 0.1309 -0.0018 -0.9914
vn 0.1311 -0.0017 -0.9914
vn -0.0099 0.0004 1.0000
vn -0.0099 0.0006 1.0000
vn 0.0097 -0.0007 -1.0000
vn 0.0098 -0.0004 -1.0000
vn 0.1584 -0.0060 0.9874
vn 0.1583 -0.0057 0.9874
vn -0.1581 0.0068 -0.9874
vn -0.1582 0.0071 -0.9874
vn 0.1799 -0.0149 0.9836
vn 0.1799 -0.0146 0.9836
vn 0.9966 -0.0827 -0.0000
vn 0.9966 -0.0827 0.0000
vn -0.1794 0.0146 -0.9837
vn -0.1793 0.0148 -0.9837
# 49 vertex normals

vt 0.2782 0.1941 0.0000
vt 0.0732 0.0269 0.0000
vt 0.0246 0.0722 0.0000
vt 0.2297 0.2393 0.0000
vt 0.4365 0.4045 0.0000
vt 0.3878 0.4497 0.0000
vt 0.5846 0.6237 0.0000
vt 0.5361 0.6690 0.0000
vt 0.7767 0.7802 0.0000
vt 0.7283 0.8256 0.0000
vt 0.9757 0.9280 0.0000
vt 0.9271 0.9733 0.0000
vt 0.0231 0.0725 0.0000
vt 0.0717 0.0272 0.0000
vt 0.2764 0.1938 0.0000
vt 0.2279 0.2391 0.0000
vt 0.4347 0.4043 0.0000
vt 0.3862 0.4496 0.0000
vt 0.5831 0.6237 0.0000
vt 0.5345 0.6690 0.0000
vt 0.7747 0.7797 0.0000
vt 0.7263 0.8252 0.0000
vt 0.9734 0.9274 0.0000
vt 0.9248 0.9727 0.0000
# 24 texture coords

g Plane001
usemtl Material__3
s 1
f 1/1/1 2/2/2 3/3/2 4/4/3 
f 5/5/4 1/1/1 4/4/3 6/6/5 
f 7/7/6 5/5/4 6/6/5 8/8/7 
f 9/9/8 7/7/6 8/8/7 10/10/9 
f 11/11/10 9/9/8 10/10/9 12/12/11 
f 13/13/12 14/14/12 15/15/13 16/16/14 
f 16/16/14 15/15/13 17/17/15 18/18/16 
f 18/18/16 17/17/15 19/19/17 20/20/18 
f 20/20/18 19/19/17 21/21/19 22/22/20 
f 22/22/20 21/21/19 23/23/21 24/24/22 
s 2
f 13/3/23 16/4/24 4/4/25 3/3/26 
f 15/1/27 14/2/28 2/2/29 1/1/30 
s 4
f 14/2/31 13/3/31 3/3/31 2/2/31 
s 2
f 16/4/24 18/6/32 6/6/33 4/4/25 
f 17/5/34 15/1/27 1/1/30 5/5/35 
f 18/6/32 20/8/36 8/8/37 6/6/33 
f 19/7/38 17/5/34 5/5/35 7/7/39 
f 20/8/36 22/10/40 10/10/41 8/8/37 
f 21/9/42 19/7/38 7/7/39 9/9/43 
f 22/10/40 24/12/44 12/12/45 10/10/41 
s 4
f 24/12/46 23/11/47 11/11/46 12/12/46 
s 2
f 23/11/48 21/9/42 9/9/43 11/11/49 
# 22 polygons

