# 3ds Max Wavefront OBJ Exporter v0.97b - (c)2007 guruware
# File Created: 06.07.2015 23:19:45

#
# object book
#

v  39.9023 0.0000 24.7581
v  39.9023 0.7962 24.7581
v  39.9023 0.7962 26.9952
v  39.9023 0.0000 26.9952
v  37.7546 0.0000 -26.9952
v  37.7546 0.7962 -26.9952
v  39.9023 0.7962 -26.9952
v  39.9023 0.0000 -26.9952
v  39.9023 0.0000 -24.7581
v  37.7546 0.0000 -24.7581
v  37.7546 0.7962 26.9952
v  37.7546 0.0000 26.9952
v  37.7546 0.7962 24.7581
v  39.9023 0.7962 -24.7581
v  37.7546 0.0000 24.7581
v  37.7546 0.7962 -24.7581
v  8.4547 0.0000 -26.9952
v  8.4547 0.7962 -26.9952
v  8.4547 0.0000 26.9952
v  8.4547 0.0000 24.7581
v  8.4547 0.7962 26.9952
v  8.4547 0.7962 -24.7581
v  8.4547 0.0000 -24.7581
v  8.4547 0.7962 24.7581
v  8.4547 3.9478 -24.7581
v  8.4547 3.9478 24.7581
v  37.7546 2.9577 24.7581
v  37.7546 2.9577 -24.7581
v  4.9696 0.7962 24.7581
v  4.9696 4.3201 24.7581
v  1.8677 0.0000 -26.9952
v  1.8677 0.7962 -26.9952
v  4.9696 0.7962 -26.9952
v  4.9696 0.0000 -26.9952
v  1.8677 0.0000 26.9952
v  1.8677 0.0000 24.7581
v  4.9696 0.0000 24.7581
v  4.9696 0.0000 26.9952
v  1.8677 0.7962 26.9952
v  4.9696 0.7962 26.9952
v  1.8677 0.7962 -24.7581
v  4.9696 0.7962 -24.7581
v  1.8677 0.0000 -24.7581
v  4.9696 0.0000 -24.7581
v  1.8677 0.7962 24.7581
v  1.8677 2.7874 -24.7581
v  1.8677 2.7874 24.7581
v  4.9696 4.3201 -24.7581
v  0.0504 1.1268 24.7581
v  0.0504 0.7962 24.7581
v  0.0504 0.0000 -26.9952
v  0.0504 0.7962 -26.9952
v  0.0504 0.0000 26.9952
v  0.0504 0.0000 24.7581
v  0.0504 0.7962 26.9952
v  0.0504 0.7962 -24.7581
v  0.0504 0.0000 -24.7581
v  0.0504 1.1268 -24.7581
v  -39.8014 0.0000 24.7581
v  -39.8014 0.0000 26.9952
v  -39.8014 0.7962 26.9952
v  -39.8014 0.7962 24.7581
v  -37.6538 0.0000 -26.9952
v  -39.8014 0.0000 -26.9952
v  -39.8014 0.7962 -26.9952
v  -37.6538 0.7962 -26.9952
v  -39.8014 0.0000 -24.7581
v  -37.6538 0.0000 -24.7581
v  -37.6538 0.0000 26.9952
v  -37.6538 0.7962 26.9952
v  -37.6538 0.7962 24.7581
v  -39.8014 0.7962 -24.7581
v  -37.6538 0.0000 24.7581
v  -37.6538 0.7962 -24.7581
v  -8.3539 0.0000 -26.9952
v  -8.3539 0.7962 -26.9952
v  -8.3539 0.0000 26.9952
v  -8.3539 0.0000 24.7581
v  -8.3539 0.7962 26.9952
v  -8.3539 0.7962 -24.7581
v  -8.3539 0.0000 -24.7581
v  -8.3539 0.7962 24.7581
v  -8.3539 3.9478 -24.7581
v  -37.6538 2.9577 -24.7581
v  -37.6538 2.9577 24.7581
v  -8.3539 3.9478 24.7581
v  -4.8688 0.7962 24.7581
v  -4.8688 4.3201 24.7581
v  -1.7669 0.0000 -26.9952
v  -4.8688 0.0000 -26.9952
v  -4.8688 0.7962 -26.9952
v  -1.7669 0.7962 -26.9952
v  -1.7669 0.0000 26.9952
v  -4.8688 0.0000 26.9952
v  -4.8688 0.0000 24.7581
v  -1.7669 0.0000 24.7581
v  -1.7669 0.7962 26.9952
v  -4.8688 0.7962 26.9952
v  -4.8688 0.7962 -24.7581
v  -1.7669 0.7962 -24.7581
v  -1.7669 0.0000 -24.7581
v  -4.8688 0.0000 -24.7581
v  -1.7669 0.7962 24.7581
v  -1.7669 2.7874 -24.7581
v  -4.8688 4.3201 -24.7581
v  -1.7669 2.7874 24.7581
# 106 vertices

vn 1.0000 0.0000 -0.0000
vn 0.0000 0.0000 -1.0000
vn 0.0000 -1.0000 -0.0000
vn 0.0000 0.0000 1.0000
vn 0.0000 1.0000 -0.0000
vn 0.6586 0.7525 0.0000
vn 0.4337 0.9011 0.0000
vn 1.0000 0.0000 0.0000
vn -0.0000 0.0000 -1.0000
vn -0.0000 0.0000 1.0000
vn -0.0000 1.0000 -0.0000
vn -0.9941 0.1087 -0.0000
vn -0.2183 0.9759 0.0000
vn 0.0000 1.0000 0.0000
vn -1.0000 0.0000 -0.0000
vn -0.6586 0.7525 0.0000
vn -0.4337 0.9011 0.0000
vn 0.9941 0.1087 -0.0000
vn 0.2183 0.9759 0.0000
# 19 vertex normals

vt 0.3536 0.7900 0.0000
vt 0.3536 0.8355 0.0000
vt 0.3428 0.8355 0.0000
vt 0.3428 0.7900 0.0000
vt 0.6020 0.7814 0.0000
vt 0.6475 0.7814 0.0000
vt 0.6475 0.7900 0.0000
vt 0.6020 0.7900 0.0000
vt 0.5913 0.7900 0.0000
vt 0.5913 0.7814 0.0000
vt 0.2973 0.7900 0.0000
vt 0.2973 0.7814 0.0000
vt 0.3428 0.7814 0.0000
vt 0.3536 0.8441 0.0000
vt 0.3428 0.8441 0.0000
vt 0.6020 0.8355 0.0000
vt 0.5913 0.8355 0.0000
vt 0.3536 0.7814 0.0000
vt 0.6020 0.8441 0.0000
vt 0.5913 0.8441 0.0000
vt 0.6020 0.6638 0.0000
vt 0.6475 0.6638 0.0000
vt 0.3428 0.6638 0.0000
vt 0.3536 0.6638 0.0000
vt 0.2973 0.6638 0.0000
vt 0.6583 0.6638 0.0000
vt 0.6583 0.7814 0.0000
vt 0.5913 0.6638 0.0000
vt 0.2866 0.6638 0.0000
vt 0.2866 0.7814 0.0000
vt 0.6684 0.5801 0.0000
vt 0.6684 0.0483 0.0000
vt 0.9604 0.0483 0.0000
vt 0.9604 0.5801 0.0000
vt 0.4046 0.9245 0.0000
vt 0.9585 0.9247 0.0000
vt 0.9585 0.9537 0.0000
vt 0.4046 0.9536 0.0000
vt 0.1306 0.9246 0.0000
vt 0.1306 0.9669 0.0000
vt 0.4046 0.9246 0.0000
vt 0.0981 0.9245 0.0000
vt 0.1306 0.9245 0.0000
vt 0.0981 0.9719 0.0000
vt 0.6020 0.6373 0.0000
vt 0.6475 0.6373 0.0000
vt 0.6475 0.6498 0.0000
vt 0.6020 0.6498 0.0000
vt 0.3428 0.6373 0.0000
vt 0.3536 0.6373 0.0000
vt 0.3536 0.6498 0.0000
vt 0.3428 0.6498 0.0000
vt 0.2973 0.6373 0.0000
vt 0.2973 0.6498 0.0000
vt 0.6583 0.6373 0.0000
vt 0.6583 0.6498 0.0000
vt 0.5913 0.6373 0.0000
vt 0.5913 0.6498 0.0000
vt 0.2866 0.6373 0.0000
vt 0.2866 0.6498 0.0000
vt 0.5765 0.5801 0.0000
vt 0.5765 0.0483 0.0000
vt 0.6112 0.0483 0.0000
vt 0.6112 0.5801 0.0000
vt 0.0981 0.9246 0.0000
vt 0.0691 0.9246 0.0000
vt 0.0691 0.9513 0.0000
vt 0.0691 0.9245 0.0000
vt 0.0521 0.9290 0.0000
vt 0.0521 0.9245 0.0000
vt 0.6020 0.6300 0.0000
vt 0.6475 0.6300 0.0000
vt 0.3428 0.6300 0.0000
vt 0.3536 0.6300 0.0000
vt 0.2973 0.6300 0.0000
vt 0.6583 0.6300 0.0000
vt 0.5913 0.6300 0.0000
vt 0.2866 0.6300 0.0000
vt 0.5392 0.5801 0.0000
vt 0.5392 0.0483 0.0000
vt 0.0521 0.9246 0.0000
vt 0.4102 0.5801 0.0000
vt 0.1182 0.5801 0.0000
vt 0.1182 0.0483 0.0000
vt 0.4102 0.0483 0.0000
vt 0.5021 0.5801 0.0000
vt 0.4674 0.5801 0.0000
vt 0.4674 0.0483 0.0000
vt 0.5021 0.0483 0.0000
vt 0.5394 0.5801 0.0000
vt 0.5394 0.0483 0.0000
# 91 texture coords

g book
s 16
f 1/1/1 2/2/1 3/3/1 4/4/1 
s 32
f 5/5/2 6/6/2 7/7/2 8/8/2 
s 2
f 9/9/3 10/10/3 5/5/3 8/8/3 
s 8
f 3/11/4 11/12/4 12/13/4 4/4/4 
s 4
f 2/2/5 13/14/5 11/15/5 3/3/5 
s 16
f 8/8/1 7/16/1 14/17/1 9/9/1 
s 2
f 4/4/3 12/13/3 15/18/3 1/1/3 
s 4
f 7/16/5 6/19/5 16/20/5 14/17/5 
s 16
f 1/1/1 9/9/1 14/17/1 2/2/1 
s 2
f 9/9/3 1/1/3 15/18/3 10/10/3 
s 4
f 2/2/5 14/17/5 16/20/5 13/14/5 
s 32
f 17/21/2 18/22/2 6/6/2 5/5/2 
s 2
f 19/23/3 20/24/3 15/18/3 12/13/3 
s 8
f 21/25/4 19/23/4 12/13/4 11/12/4 
s 4
f 18/22/5 22/26/5 16/27/5 6/6/5 
s 2
f 23/28/3 17/21/3 5/5/3 10/10/3 
s 4
f 24/29/5 21/25/5 11/12/5 13/30/5 
s 2
f 20/24/3 23/28/3 10/10/3 15/18/3 
s 4
f 25/31/6 26/32/6 27/33/7 28/34/7 
s off
f 13/35/8 16/36/8 28/37/8 27/38/8 
f 22/39/9 25/40/9 28/38/9 16/41/9 
f 29/42/10 24/43/10 26/40/10 30/44/10 
s 32
f 31/45/2 32/46/2 33/47/2 34/48/2 
s 2
f 35/49/3 36/50/3 37/51/3 38/52/3 
s 8
f 39/53/4 35/49/4 38/52/4 40/54/4 
s 4
f 32/46/11 41/55/11 42/56/5 33/47/5 
s 2
f 43/57/3 31/45/3 34/48/3 44/58/3 
s 4
f 45/59/11 39/53/11 40/54/11 29/60/11 
s 2
f 36/50/3 43/57/3 44/58/3 37/51/3 
s 4
f 46/61/12 47/62/12 30/63/13 48/64/13 
s off
f 42/65/2 41/66/2 46/67/2 48/44/2 
f 45/68/10 47/67/10 49/69/10 50/70/10 
s 32
f 34/48/2 33/47/2 18/22/2 17/21/2 
s 2
f 38/52/3 37/51/3 20/24/3 19/23/3 
s 8
f 40/54/4 38/52/4 19/23/4 21/25/4 
s 4
f 33/47/5 42/56/5 22/26/5 18/22/5 
s 2
f 44/58/3 34/48/3 17/21/3 23/28/3 
s 4
f 29/60/11 40/54/11 21/25/5 24/29/5 
s 2
f 37/51/3 44/58/3 23/28/3 20/24/3 
s 4
f 48/64/13 30/63/13 26/32/6 25/31/6 
s off
f 42/65/9 48/44/9 25/40/9 22/39/9 
f 24/43/10 13/35/10 27/38/10 26/40/10 
s 32
f 51/71/2 52/72/2 32/46/2 31/45/2 
s 2
f 53/73/3 54/74/3 36/50/3 35/49/3 
s 8
f 55/75/4 53/73/4 35/49/4 39/53/4 
s 4
f 52/72/5 56/76/5 41/55/11 32/46/11 
s 2
f 57/77/3 51/71/3 31/45/3 43/57/3 
s 4
f 50/78/5 55/75/5 39/53/11 45/59/11 
s 2
f 54/74/3 57/77/3 43/57/3 36/50/3 
s 4
f 58/79/5 49/80/14 47/62/12 46/61/12 
s off
f 41/66/9 56/81/9 58/69/9 46/67/9 
f 29/42/4 30/44/4 47/67/4 45/68/4 
s 16
f 59/1/15 60/4/15 61/3/15 62/2/15 
s 32
f 63/5/2 64/8/2 65/7/2 66/6/2 
s 2
f 67/9/3 64/8/3 63/5/3 68/10/3 
s 8
f 61/11/4 60/4/4 69/13/4 70/12/4 
s 4
f 62/2/5 61/3/5 70/15/5 71/14/5 
s 16
f 64/8/15 67/9/15 72/17/15 65/16/15 
s 2
f 60/4/3 59/1/3 73/18/3 69/13/3 
s 4
f 65/16/5 72/17/5 74/20/5 66/19/5 
s 16
f 59/1/15 62/2/15 72/17/15 67/9/15 
s 2
f 67/9/3 68/10/3 73/18/3 59/1/3 
s 4
f 62/2/5 71/14/5 74/20/5 72/17/5 
s 32
f 75/21/2 63/5/2 66/6/2 76/22/2 
s 2
f 77/23/3 69/13/3 73/18/3 78/24/3 
s 8
f 79/25/4 70/12/4 69/13/4 77/23/4 
s 4
f 76/22/5 66/6/5 74/27/5 80/26/11 
s 2
f 81/28/3 68/10/3 63/5/3 75/21/3 
s 4
f 82/29/11 71/30/5 70/12/5 79/25/11 
s 2
f 78/24/3 73/18/3 68/10/3 81/28/3 
s 4
f 83/82/16 84/83/17 85/84/17 86/85/16 
s off
f 71/35/15 85/38/15 84/37/15 74/36/15 
f 80/39/2 74/41/2 84/38/2 83/40/2 
f 87/42/4 88/44/4 86/40/4 82/43/4 
s 32
f 89/45/2 90/48/2 91/47/2 92/46/2 
s 2
f 93/49/3 94/52/3 95/51/3 96/50/3 
s 8
f 97/53/4 98/54/4 94/52/4 93/49/4 
s 4
f 92/46/5 91/47/11 99/56/11 100/55/5 
s 2
f 101/57/3 102/58/3 90/48/3 89/45/3 
s 4
f 103/59/5 87/60/5 98/54/5 97/53/5 
s 2
f 96/50/3 95/51/3 102/58/3 101/57/3 
s 4
f 104/86/18 105/87/19 88/88/19 106/89/18 
s off
f 99/65/9 105/44/9 104/67/9 100/66/9 
f 103/68/4 50/70/4 49/69/4 106/67/4 
s 32
f 90/48/2 75/21/2 76/22/2 91/47/2 
s 2
f 94/52/3 77/23/3 78/24/3 95/51/3 
s 8
f 98/54/4 79/25/4 77/23/4 94/52/4 
s 4
f 91/47/11 76/22/5 80/26/11 99/56/11 
s 2
f 102/58/3 81/28/3 75/21/3 90/48/3 
s 4
f 87/60/5 82/29/11 79/25/11 98/54/5 
s 2
f 95/51/3 78/24/3 81/28/3 102/58/3 
s 4
f 105/87/19 83/82/16 86/85/16 88/88/19 
s off
f 99/65/2 80/39/2 83/40/2 105/44/2 
f 82/43/4 86/40/4 85/38/4 71/35/4 
s 32
f 51/71/2 89/45/2 92/46/2 52/72/2 
s 2
f 53/73/3 93/49/3 96/50/3 54/74/3 
s 8
f 55/75/4 97/53/4 93/49/4 53/73/4 
s 4
f 52/72/5 92/46/5 100/55/5 56/76/5 
s 2
f 57/77/3 101/57/3 89/45/3 51/71/3 
s 4
f 50/78/5 103/59/5 97/53/5 55/75/5 
s 2
f 54/74/3 96/50/3 101/57/3 57/77/3 
s 4
f 58/90/5 104/86/18 106/89/18 49/91/14 
s off
f 100/66/2 104/67/2 58/69/2 56/81/2 
f 87/42/10 103/68/10 106/67/10 88/44/10 
# 104 polygons

