# 3ds Max Wavefront OBJ Exporter v0.97b - (c)2007 guruware
# File Created: 11.07.2015 03:53:29

mtllib paperplane_crashed.mtl

#
# object Plane001
#

v  -51.2748 0.4246 46.3912
v  -46.8429 9.3241 46.9620
v  -46.7797 9.3869 40.6448
v  -51.2294 0.4290 43.1610
v  4.8934 1.2330 27.5018
v  -5.2013 17.3856 27.4943
v  -5.4953 17.2676 49.9452
v  5.1555 1.3442 49.9452
v  -0.4615 22.0182 27.4951
v  -0.1638 21.9247 49.9523
v  57.1480 3.4995 49.8354
v  -46.9060 9.2612 32.7967
v  -51.3201 0.4201 39.1480
v  5.0518 2.7018 -0.1541
v  -5.7889 17.1493 -0.3978
v  -0.4644 22.0176 0.2214
v  -46.3284 9.8141 24.4342
v  -50.9125 0.4521 34.8721
v  1.4381 -0.4279 -40.4574
v  -3.6713 22.9494 -30.1179
v  -50.7134 0.4661 32.5229
v  -46.0442 10.0818 19.8400
v  -46.0612 10.0328 18.5596
v  -50.7360 0.4522 31.8682
v  0.4823 21.6393 -37.1068
v  -37.3454 2.8649 46.7385
v  -46.0247 7.7769 45.9797
v  -45.9646 7.8389 39.6618
v  -37.2269 2.9151 37.3332
v  -5.6538 16.2803 49.9452
v  -5.3709 16.4001 27.4915
v  5.8466 -1.0491 27.4915
v  6.1298 -0.9293 49.9452
v  0.6199 20.8781 27.4915
v  0.9122 20.7833 49.9452
v  56.8397 2.5483 49.8354
v  -46.0850 7.7147 31.8162
v  -37.4640 2.8147 25.6536
v  -5.9371 16.1604 -0.3916
v  6.4768 -0.7824 -2.1060
v  0.9780 20.7620 -1.7548
v  -46.0883 7.7113 22.3691
v  -37.4705 2.8120 11.5900
v  -5.9525 16.1539 -33.9663
v  2.1598 -2.6098 -42.6770
v  -2.3342 21.7307 -32.6191
v  -35.8332 3.5051 5.9188
v  -45.2569 8.5688 18.5595
v  -45.4418 8.3781 17.3661
v  -36.1973 3.3509 4.1422
v  10.1073 0.7545 -50.7829
v  -2.5288 17.6032 -41.0798
v  -2.0437 17.8085 -47.5055
v  2.0644 -2.6502 -61.7808
v  -2.4114 21.7558 -47.3246
v  2.5634 20.1431 -35.1557
v  -1.9969 21.6214 -50.9434
v  -37.4366 4.4640 47.5328
v  -51.1790 -1.3973 30.5900
v  5.6905 -1.1152 -69.6650
v  -2.9129 17.4405 -51.7470
v  -2.5549 22.4397 -50.9962
v  5.3196 -0.1863 -69.6648
v  -50.2907 0.5293 33.8665
v  -45.4824 10.7006 22.4677
v  -2.3720 22.4621 -46.4456
v  -45.3601 8.4624 20.3676
v  -36.0364 3.4190 8.6104
v  -37.3135 4.5134 38.1287
v  -58.7217 6.7038 45.7939
v  -37.5596 4.4144 26.4454
v  -36.4470 4.8372 13.9963
v  -35.9537 4.9820 5.2509
v  -35.9020 5.0392 7.1570
v  -51.6044 -1.4467 45.2210
v  -59.8026 4.9526 44.4271
v  -51.5605 -1.4416 41.9905
v  -51.6483 -1.4518 37.9788
v  -51.6507 -1.4521 33.1482
v  -51.0441 -1.3816 31.2003
v  -34.7727 5.5617 11.0688
v  -51.1194 -1.3904 32.1248
# 82 vertices

vn -0.2443 0.9697 0.0001
vn -0.2822 0.9593 0.0067
vn -0.3049 0.9524 -0.0004
vn -0.2134 0.9769 -0.0050
vn -0.3884 0.9192 0.0641
vn 0.3082 0.9513 0.0087
vn 0.3156 0.9489 -0.0004
vn -0.4165 0.9091 -0.0008
vn -0.6874 0.7263 0.0063
vn -0.6841 0.7293 0.0121
vn 0.3074 0.9516 -0.0014
vn -0.3341 0.9425 -0.0035
vn -0.1627 0.9862 0.0316
vn -0.4773 0.8773 -0.0506
vn 0.3299 0.9429 0.0460
vn -0.6802 0.7319 0.0403
vn -0.4688 0.8669 -0.1694
vn -0.0490 0.8645 0.5002
vn -0.1003 0.5197 0.8484
vn -0.4421 0.8629 -0.2447
vn -0.1158 0.9920 0.0495
vn -0.4657 0.8782 -0.1093
vn 0.1331 0.9903 -0.0393
vn -0.7346 0.6784 0.0110
vn 0.0637 0.9979 0.0109
vn -0.0344 -0.9994 -0.0062
vn 0.2157 -0.9764 -0.0066
vn 0.2474 -0.9689 -0.0005
vn -0.0506 -0.9987 0.0034
vn -0.3076 -0.9515 0.0004
vn -0.2945 -0.9556 -0.0062
vn 0.3859 -0.9220 -0.0311
vn 0.4134 -0.9105 0.0022
vn 0.6806 -0.7326 -0.0008
vn 0.6765 -0.7364 -0.0119
vn -0.3105 -0.9506 0.0008
vn 0.2582 -0.9661 0.0079
vn -0.0590 -0.9983 0.0033
vn -0.2752 -0.9609 0.0313
vn 0.4618 -0.8857 0.0476
vn 0.6672 -0.7440 -0.0374
vn 0.3961 -0.9132 0.0953
vn -0.3066 -0.9144 -0.2645
vn -0.3175 -0.9406 -0.1198
vn -0.0774 -0.9752 -0.2073
vn 0.6650 -0.6949 0.2736
vn 0.0496 -0.9976 0.0490
vn 0.1944 -0.9805 -0.0289
vn 0.0577 -0.9874 0.1472
vn 0.2202 -0.9746 0.0394
vn 0.6767 -0.5825 -0.4504
vn -0.3954 -0.8696 -0.2958
vn -0.3388 -0.9363 0.0924
vn -0.0981 -0.9787 -0.1803
vn 0.7352 -0.6270 -0.2575
vn 0.1243 -0.9265 0.3552
vn 0.9685 -0.1920 0.1588
vn 0.0917 -0.4826 0.8710
vn 0.0078 -0.5453 0.8382
vn -0.0924 -0.4598 0.8832
vn -0.1008 -0.4445 0.8901
vn -0.0362 0.0011 0.9993
vn 0.0000 -0.0000 1.0000
vn 0.0001 0.0000 1.0000
vn -0.0467 0.0074 0.9989
vn 0.0043 -0.0022 1.0000
vn 0.8333 -0.2664 0.4843
vn 0.8316 -0.2696 0.4856
vn -0.8823 0.0419 -0.4688
vn -0.8170 0.1097 -0.5661
vn -0.8527 0.4036 -0.3317
vn -0.7650 0.4843 -0.4245
vn -0.7045 0.2270 -0.6724
vn -0.8439 0.1383 -0.5183
vn -0.1389 0.5946 -0.7919
vn -0.1065 0.0983 -0.9894
vn 0.7912 0.5172 -0.3264
vn -0.7857 -0.6042 0.1330
vn 0.8430 -0.4460 0.3009
vn -0.5263 0.7300 -0.4361
vn -0.0434 0.9448 0.3249
vn -0.1026 0.9947 -0.0008
vn -0.0645 0.9977 0.0205
vn 0.0474 -0.9430 -0.3295
vn -0.0697 -0.9947 -0.0759
vn 0.0413 0.9991 -0.0034
vn 0.0334 0.9994 0.0062
vn 0.6515 0.7584 0.0203
vn 0.0804 0.9964 0.0277
vn 0.2803 0.9066 0.3155
vn -0.3027 0.9529 -0.0200
vn -0.0040 0.9989 -0.0469
vn 0.2260 -0.9741 0.0015
vn -0.6245 -0.7809 -0.0122
vn 0.1909 -0.9816 0.0014
vn 0.1748 -0.9846 -0.0028
vn -0.0549 -0.9373 -0.3442
vn 0.3246 -0.9438 0.0625
vn 0.5285 -0.8439 -0.0922
vn -0.8493 0.1117 0.5160
vn -0.8853 0.4553 0.0952
vn -0.0596 -0.5167 0.8541
vn 0.2448 -0.5334 0.8097
vn -0.7742 0.4253 -0.4688
vn -0.7092 0.4607 -0.5337
vn -0.2802 0.9496 -0.1404
vn 0.3463 -0.8818 0.3203
# 107 vertex normals

vt 0.4274 0.5038 0.0000
vt 0.4618 0.5266 0.0000
vt 0.4466 0.5487 0.0000
vt 0.4195 0.5150 0.0000
vt 0.6495 0.7432 0.0000
vt 0.5759 0.6985 0.0000
vt 0.6262 0.6177 0.0000
vt 0.7002 0.6635 0.0000
vt 0.8525 0.3374 0.0000
vt 0.9484 0.3380 0.0000
vt 0.9482 0.4320 0.0000
vt 0.8523 0.4320 0.0000
vt 0.5985 0.4326 0.0000
vt 0.4272 0.5757 0.0000
vt 0.4095 0.5286 0.0000
vt 0.5856 0.8365 0.0000
vt 0.5108 0.7994 0.0000
vt 0.8524 0.2211 0.0000
vt 0.9439 0.2240 0.0000
vt 0.4086 0.6061 0.0000
vt 0.3996 0.5438 0.0000
vt 0.5226 0.9913 0.0000
vt 0.4492 0.9135 0.0000
vt 0.8596 0.0914 0.0000
vt 0.9618 0.0564 0.0000
vt 0.3932 0.5521 0.0000
vt 0.3969 0.6227 0.0000
vt 0.3936 0.6269 0.0000
vt 0.3915 0.5544 0.0000
vt 0.8395 0.0615 0.0000
vt 0.1177 0.3212 0.0000
vt 0.0839 0.2959 0.0000
vt 0.0985 0.2732 0.0000
vt 0.1398 0.2874 0.0000
vt 0.2324 0.4137 0.0000
vt 0.2858 0.3343 0.0000
vt 0.3594 0.3833 0.0000
vt 0.3062 0.4636 0.0000
vt 0.0165 0.9965 0.0000
vt 0.0164 0.9006 0.0000
vt 0.1140 0.8993 0.0000
vt 0.1145 0.9953 0.0000
vt 0.3705 0.9937 0.0000
vt 0.1159 0.2447 0.0000
vt 0.1662 0.2444 0.0000
vt 0.3501 0.2340 0.0000
vt 0.4286 0.2783 0.0000
vt 0.0161 0.7763 0.0000
vt 0.1143 0.7739 0.0000
vt 0.1374 0.2105 0.0000
vt 0.1985 0.1932 0.0000
vt 0.4309 0.1144 0.0000
vt 0.5255 0.1356 0.0000
vt 0.0020 0.6041 0.0000
vt 0.1088 0.6425 0.0000
vt 0.2148 0.1751 0.0000
vt 0.1482 0.1978 0.0000
vt 0.1500 0.1931 0.0000
vt 0.2173 0.1680 0.0000
vt 0.5526 0.0946 0.0000
vt 0.4550 0.0903 0.0000
vt 0.4692 0.0677 0.0000
vt 0.5720 0.0392 0.0000
vt 0.1077 0.5755 0.0000
vt 0.1160 0.6279 0.0000
vt 0.0085 0.5771 0.0000
vt 0.0021 0.5193 0.0000
vt 0.1076 0.5611 0.0000
vt 0.0753 0.2970 0.0000
vt 0.1111 0.3248 0.0000
vt 0.3022 0.4621 0.0000
vt 0.2283 0.4141 0.0000
vt 0.1154 0.9970 0.0000
vt 0.0202 0.9970 0.0000
vt 0.3713 0.9980 0.0000
vt 0.1466 0.1849 0.0000
vt 0.0795 0.2165 0.0000
vt 0.0772 0.2072 0.0000
vt 0.5809 0.0030 0.0000
vt 0.4757 0.0510 0.0000
vt 0.4548 0.0448 0.0000
vt 0.5773 0.0020 0.0000
vt 0.0047 0.4812 0.0000
vt 0.0089 0.4812 0.0000
vt 0.1118 0.5607 0.0000
vt 0.1095 0.5576 0.0000
vt 0.3739 0.9917 0.0000
vt 0.0051 0.6255 0.0000
vt 0.3976 0.5482 0.0000
vt 0.4054 0.6151 0.0000
vt 0.8500 0.0020 0.0000
vt 0.8501 0.0213 0.0000
vt 0.1440 0.2041 0.0000
vt 0.2088 0.1842 0.0000
vt 0.4769 0.5829 0.0000
vt 0.4987 0.5491 0.0000
vt 0.3934 0.4812 0.0000
vt 0.4485 0.6238 0.0000
vt 0.4221 0.6697 0.0000
vt 0.4038 0.9724 0.0000
vt 0.3918 0.9878 0.0000
vt 0.4004 0.7008 0.0000
vt 0.4053 0.6944 0.0000
vt 0.0465 0.2695 0.0000
vt 0.0102 0.2440 0.0000
vt 0.0539 0.2578 0.0000
vt 0.0627 0.2431 0.0000
vt 0.0734 0.2256 0.0000
vt 0.0786 0.2189 0.0000
vt 0.0036 0.2523 0.0000
vt 0.0387 0.2749 0.0000
vt 0.0498 0.2782 0.0000
vt 0.0832 0.3045 0.0000
vt 0.2322 0.4179 0.0000
vt 0.1151 0.3283 0.0000
vt 0.4696 0.0302 0.0000
vt 0.2118 0.1616 0.0000
vt 0.2103 0.1636 0.0000
vt 0.1410 0.1912 0.0000
vt 0.0020 0.2374 0.0000
vt 0.0711 0.2118 0.0000
vt 0.4359 0.9456 0.0000
vt 0.4188 0.6836 0.0000
vt 0.0766 0.2221 0.0000
# 124 texture coords

g Plane001
usemtl Material__2
s 1
f 1/1/1 2/2/2 3/3/3 4/4/4 
f 5/5/5 6/6/6 7/7/7 8/8/8 
f 9/9/9 5/10/5 8/11/8 10/12/10 
f 9/9/9 10/12/10 11/13/11 
f 4/4/4 3/3/3 12/14/12 13/15/13 
f 14/16/14 15/17/15 6/6/6 5/5/5 
f 16/18/16 14/19/14 5/10/5 9/9/9 
f 16/18/16 9/9/9 11/13/11 
f 13/15/13 12/14/12 17/20/17 18/21/18 
f 19/22/19 20/23/20 15/17/15 14/16/14 
f 20/24/20 19/25/19 14/19/14 16/18/16 
f 20/24/20 16/18/16 11/13/11 
f 21/26/21 22/27/22 23/28/23 24/29/24 
f 20/24/20 11/13/11 25/30/25 
f 26/31/26 27/32/27 28/33/28 29/34/29 
f 30/35/30 31/36/31 32/37/32 33/38/33 
f 33/39/33 32/40/32 34/41/34 35/42/35 
f 36/43/36 35/42/35 34/41/34 
f 29/34/29 28/33/28 37/44/37 38/45/38 
f 31/36/31 39/46/39 40/47/40 32/37/32 
f 32/40/32 40/48/40 41/49/41 34/41/34 
f 36/43/36 34/41/34 41/49/41 
f 38/45/38 37/44/37 42/50/42 43/51/43 
f 39/46/39 44/52/44 45/53/45 40/47/40 
f 40/48/40 45/54/45 46/55/46 41/49/41 
f 36/43/36 41/49/41 46/55/46 
f 47/56/47 48/57/48 49/58/49 50/59/50 
f 51/60/51 52/61/52 53/62/53 54/63/54 
f 55/64/55 56/65/56 51/66/51 54/67/54 
f 57/68/57 36/43/36 55/64/55 
s 2
f 2/69/58 27/32/59 26/31/60 58/70/61 
f 30/35/62 33/38/63 8/71/64 7/72/65 
f 35/42/66 10/73/66 8/74/64 33/39/63 
f 35/42/66 36/43/67 11/75/68 10/73/66 
s 6
f 23/76/69 49/58/70 59/77/71 24/78/72 
f 60/79/73 61/80/74 62/81/75 63/82/76 
s 2
f 57/68/77 60/83/73 63/84/76 62/85/75 
s 6
f 36/43/67 57/68/77 62/86/75 11/87/68 
s 1
f 45/53/45 44/52/44 52/61/52 51/60/51 
f 61/80/78 60/79/79 54/63/54 53/62/53 
f 56/65/56 46/55/46 45/88/45 51/66/51 
f 54/67/54 60/83/79 57/68/57 55/64/55 
f 64/89/80 65/90/81 22/27/22 21/26/21 
f 11/13/11 62/91/82 66/92/83 
f 11/13/11 66/92/83 25/30/25 
f 18/21/18 17/20/17 65/90/81 64/89/80 
f 43/51/43 42/50/42 67/93/84 68/94/85 
f 68/94/85 67/93/84 48/57/48 47/56/47 
f 36/43/36 56/65/56 55/64/55 
f 36/43/36 46/55/46 56/65/56 
f 7/7/7 6/6/6 69/95/86 58/96/87 
f 58/96/87 69/95/86 3/3/3 2/2/2 
f 4/4/4 70/97/88 1/1/1 
f 6/6/6 15/17/15 71/98/89 69/95/86 
f 69/95/86 71/98/89 12/14/12 3/3/3 
f 13/15/13 70/97/88 4/4/4 
f 15/17/15 20/23/20 72/99/90 71/98/89 
f 71/98/89 72/99/90 17/20/17 12/14/12 
f 18/21/18 70/97/88 13/15/13 
f 66/100/83 62/101/82 73/102/91 74/103/92 
f 74/103/92 73/102/91 23/28/23 22/27/22 
f 24/29/24 70/97/88 21/26/21 
f 75/104/93 76/105/94 77/106/95 
f 27/32/27 75/104/93 77/106/95 28/33/28 
f 29/34/29 31/36/31 30/35/30 26/31/26 
f 77/106/95 76/105/94 78/107/96 
f 28/33/28 77/106/95 78/107/96 37/44/37 
f 38/45/38 39/46/39 31/36/31 29/34/29 
f 78/107/96 76/105/94 79/108/97 
f 37/44/37 78/107/96 79/108/97 42/50/42 
f 43/51/43 44/52/44 39/46/39 38/45/38 
f 80/109/98 76/105/94 59/77/99 
f 48/57/48 80/109/98 59/77/99 49/58/49 
f 50/59/50 61/80/78 53/62/53 47/56/47 
s 2
f 70/110/100 76/105/101 75/104/102 1/111/103 
f 1/112/103 75/104/102 27/32/59 2/113/58 
f 30/35/62 7/114/65 58/115/61 26/31/60 
s 6
f 62/116/75 61/80/74 50/59/104 73/117/105 
f 73/118/105 50/59/104 49/58/70 23/119/69 
f 76/105/101 70/120/100 24/121/72 59/77/71 
s 1
f 25/122/25 66/100/83 74/103/92 81/123/106 
f 81/123/106 74/103/92 22/27/22 65/90/81 
f 21/26/21 70/97/88 64/89/80 
f 20/23/20 25/122/25 81/123/106 72/99/90 
f 72/99/90 81/123/106 65/90/81 17/20/17 
f 64/89/80 70/97/88 18/21/18 
f 79/108/97 76/105/94 82/124/107 
f 42/50/42 79/108/97 82/124/107 67/93/84 
f 68/94/85 52/61/52 44/52/44 43/51/43 
f 82/124/107 76/105/94 80/109/98 
f 67/93/84 82/124/107 80/109/98 48/57/48 
f 47/56/47 53/62/53 52/61/52 68/94/85 
# 68 polygons - 24 triangles

